<svg width="213" height="28" viewBox="0 0 213 28" fill="none" xmlns="http://www.w3.org/2000/svg">
<rect width="213" height="28" rx="14" fill="#B2ACA5"/>
<path d="M40.816 9.36H42.184L45.136 16.788L48.088 9.36H49.456V18H48.424V11.22L45.628 18H44.644L41.848 11.22V18H40.816V9.36ZM54.8493 18.144C53.9693 18.144 53.2173 17.944 52.5933 17.544C51.9773 17.144 51.5133 16.608 51.2013 15.936C50.8893 15.256 50.7333 14.504 50.7333 13.68C50.7333 12.856 50.8893 12.108 51.2013 11.436C51.5133 10.756 51.9773 10.216 52.5933 9.816C53.2173 9.416 53.9693 9.216 54.8493 9.216C55.7293 9.216 56.4773 9.416 57.0933 9.816C57.7173 10.216 58.1853 10.756 58.4973 11.436C58.8093 12.108 58.9653 12.856 58.9653 13.68C58.9653 14.504 58.8093 15.256 58.4973 15.936C58.1853 16.608 57.7173 17.144 57.0933 17.544C56.4773 17.944 55.7293 18.144 54.8493 18.144ZM54.8493 17.16C55.5133 17.16 56.0693 17.008 56.5173 16.704C56.9733 16.392 57.3093 15.976 57.5253 15.456C57.7493 14.928 57.8613 14.336 57.8613 13.68C57.8613 13.024 57.7493 12.436 57.5253 11.916C57.3093 11.388 56.9733 10.972 56.5173 10.668C56.0693 10.356 55.5133 10.2 54.8493 10.2C54.1853 10.2 53.6253 10.356 53.1693 10.668C52.7213 10.972 52.3853 11.388 52.1613 11.916C51.9453 12.436 51.8373 13.024 51.8373 13.68C51.8373 14.336 51.9453 14.928 52.1613 15.456C52.3853 15.976 52.7213 16.392 53.1693 16.704C53.6253 17.008 54.1853 17.16 54.8493 17.16ZM63.378 18.144C62.706 18.144 62.106 18.036 61.578 17.82C61.05 17.604 60.626 17.272 60.306 16.824C59.994 16.368 59.826 15.792 59.802 15.096H60.894C60.918 15.832 61.158 16.364 61.614 16.692C62.078 17.02 62.666 17.184 63.378 17.184C64.018 17.184 64.53 17.052 64.914 16.788C65.306 16.516 65.502 16.128 65.502 15.624C65.502 15.344 65.434 15.116 65.298 14.94C65.17 14.756 64.93 14.592 64.578 14.448C64.234 14.304 63.73 14.16 63.066 14.016C62.378 13.872 61.822 13.704 61.398 13.512C60.974 13.312 60.65 13.048 60.426 12.72C60.21 12.392 60.102 11.972 60.102 11.46C60.102 11.012 60.23 10.62 60.486 10.284C60.742 9.94 61.09 9.676 61.53 9.492C61.978 9.308 62.478 9.216 63.03 9.216C64.166 9.216 65.01 9.48 65.562 10.008C66.122 10.536 66.41 11.216 66.426 12.048H65.346C65.306 11.424 65.102 10.956 64.734 10.644C64.366 10.332 63.798 10.176 63.03 10.176C62.478 10.176 62.034 10.292 61.698 10.524C61.362 10.756 61.194 11.068 61.194 11.46C61.194 11.756 61.246 11.996 61.35 12.18C61.462 12.356 61.678 12.516 61.998 12.66C62.326 12.804 62.822 12.944 63.486 13.08C64.31 13.248 64.946 13.452 65.394 13.692C65.842 13.924 66.154 14.196 66.33 14.508C66.506 14.812 66.594 15.184 66.594 15.624C66.594 16.128 66.458 16.572 66.186 16.956C65.922 17.332 65.546 17.624 65.058 17.832C64.578 18.04 64.018 18.144 63.378 18.144ZM70.0857 10.32H67.1697V9.36H74.0937V10.32H71.1777V18H70.0857V10.32ZM79.824 10.32H76.908V9.36H83.832V10.32H80.916V18H79.824V10.32ZM88.6462 18.144C87.7662 18.144 87.0142 17.944 86.3902 17.544C85.7742 17.144 85.3102 16.608 84.9982 15.936C84.6862 15.256 84.5302 14.504 84.5302 13.68C84.5302 12.856 84.6862 12.108 84.9982 11.436C85.3102 10.756 85.7742 10.216 86.3902 9.816C87.0142 9.416 87.7662 9.216 88.6462 9.216C89.5262 9.216 90.2742 9.416 90.8902 9.816C91.5142 10.216 91.9822 10.756 92.2942 11.436C92.6062 12.108 92.7622 12.856 92.7622 13.68C92.7622 14.504 92.6062 15.256 92.2942 15.936C91.9822 16.608 91.5142 17.144 90.8902 17.544C90.2742 17.944 89.5262 18.144 88.6462 18.144ZM88.6462 17.16C89.3102 17.16 89.8662 17.008 90.3142 16.704C90.7702 16.392 91.1062 15.976 91.3222 15.456C91.5462 14.928 91.6582 14.336 91.6582 13.68C91.6582 13.024 91.5462 12.436 91.3222 11.916C91.1062 11.388 90.7702 10.972 90.3142 10.668C89.8662 10.356 89.3102 10.2 88.6462 10.2C87.9822 10.2 87.4222 10.356 86.9662 10.668C86.5182 10.972 86.1822 11.388 85.9582 11.916C85.7422 12.436 85.6342 13.024 85.6342 13.68C85.6342 14.336 85.7422 14.928 85.9582 15.456C86.1822 15.976 86.5182 16.392 86.9662 16.704C87.4222 17.008 87.9822 17.16 88.6462 17.16ZM97.2948 18.144C96.5748 18.144 95.9628 18.016 95.4588 17.76C94.9548 17.496 94.5708 17.112 94.3068 16.608C94.0428 16.104 93.9108 15.492 93.9108 14.772V9.36H94.9668V14.772C94.9668 15.596 95.1628 16.204 95.5548 16.596C95.9548 16.988 96.5348 17.184 97.2948 17.184C98.0548 17.184 98.6308 16.988 99.0228 16.596C99.4228 16.204 99.6228 15.596 99.6228 14.772V9.36H100.679V14.772C100.679 15.492 100.547 16.104 100.283 16.608C100.019 17.112 99.6348 17.496 99.1308 17.76C98.6268 18.016 98.0148 18.144 97.2948 18.144ZM105.943 18.144C105.063 18.144 104.311 17.944 103.687 17.544C103.071 17.144 102.607 16.608 102.295 15.936C101.983 15.256 101.827 14.504 101.827 13.68C101.827 12.856 101.983 12.108 102.295 11.436C102.607 10.756 103.071 10.216 103.687 9.816C104.311 9.416 105.063 9.216 105.943 9.216C106.583 9.216 107.151 9.344 107.647 9.6C108.151 9.856 108.559 10.212 108.871 10.668C109.183 11.124 109.391 11.64 109.495 12.216H108.415C108.343 11.816 108.195 11.464 107.971 11.16C107.747 10.856 107.459 10.62 107.107 10.452C106.763 10.284 106.375 10.2 105.943 10.2C105.279 10.2 104.719 10.356 104.263 10.668C103.815 10.972 103.479 11.388 103.255 11.916C103.039 12.436 102.931 13.024 102.931 13.68C102.931 14.336 103.039 14.928 103.255 15.456C103.479 15.976 103.815 16.392 104.263 16.704C104.719 17.008 105.279 17.16 105.943 17.16C106.407 17.16 106.819 17.064 107.179 16.872C107.547 16.672 107.843 16.4 108.067 16.056C108.291 15.704 108.431 15.304 108.487 14.856H109.555C109.475 15.48 109.279 16.044 108.967 16.548C108.663 17.044 108.251 17.436 107.731 17.724C107.211 18.004 106.615 18.144 105.943 18.144ZM110.824 9.36H111.88V13.056H116.632V9.36H117.688V18H116.632V14.04H111.88V18H110.824V9.36ZM119.32 9.36H120.376V18H119.32V9.36ZM122.004 9.36H123.276L127.932 16.548V9.36H128.988V18H127.716L123.06 10.812V18H122.004V9.36ZM134.373 18.144C133.493 18.144 132.741 17.944 132.117 17.544C131.501 17.144 131.037 16.608 130.725 15.936C130.413 15.256 130.257 14.504 130.257 13.68C130.257 12.856 130.413 12.108 130.725 11.436C131.037 10.756 131.501 10.216 132.117 9.816C132.741 9.416 133.493 9.216 134.373 9.216C135.085 9.216 135.709 9.348 136.245 9.612C136.789 9.876 137.225 10.24 137.553 10.704C137.889 11.16 138.109 11.684 138.213 12.276H137.133C137.021 11.66 136.717 11.16 136.221 10.776C135.733 10.392 135.117 10.2 134.373 10.2C133.709 10.2 133.149 10.356 132.693 10.668C132.245 10.972 131.909 11.388 131.685 11.916C131.469 12.436 131.361 13.024 131.361 13.68C131.361 14.336 131.469 14.928 131.685 15.456C131.909 15.976 132.245 16.392 132.693 16.704C133.149 17.008 133.709 17.16 134.373 17.16C135.205 17.16 135.857 16.924 136.329 16.452C136.809 15.972 137.117 15.324 137.253 14.508H134.013V13.548H138.309V18H137.397V16.464C137.117 17 136.729 17.416 136.233 17.712C135.737 18 135.117 18.144 134.373 18.144ZM145.292 18.144C144.62 18.144 144.02 18.036 143.492 17.82C142.964 17.604 142.54 17.272 142.22 16.824C141.908 16.368 141.74 15.792 141.716 15.096H142.808C142.832 15.832 143.072 16.364 143.528 16.692C143.992 17.02 144.58 17.184 145.292 17.184C145.932 17.184 146.444 17.052 146.828 16.788C147.22 16.516 147.416 16.128 147.416 15.624C147.416 15.344 147.348 15.116 147.212 14.94C147.084 14.756 146.844 14.592 146.492 14.448C146.148 14.304 145.644 14.16 144.98 14.016C144.292 13.872 143.736 13.704 143.312 13.512C142.888 13.312 142.564 13.048 142.34 12.72C142.124 12.392 142.016 11.972 142.016 11.46C142.016 11.012 142.144 10.62 142.4 10.284C142.656 9.94 143.004 9.676 143.444 9.492C143.892 9.308 144.392 9.216 144.944 9.216C146.08 9.216 146.924 9.48 147.476 10.008C148.036 10.536 148.324 11.216 148.34 12.048H147.26C147.22 11.424 147.016 10.956 146.648 10.644C146.28 10.332 145.712 10.176 144.944 10.176C144.392 10.176 143.948 10.292 143.612 10.524C143.276 10.756 143.108 11.068 143.108 11.46C143.108 11.756 143.16 11.996 143.264 12.18C143.376 12.356 143.592 12.516 143.912 12.66C144.24 12.804 144.736 12.944 145.4 13.08C146.224 13.248 146.86 13.452 147.308 13.692C147.756 13.924 148.068 14.196 148.244 14.508C148.42 14.812 148.508 15.184 148.508 15.624C148.508 16.128 148.372 16.572 148.1 16.956C147.836 17.332 147.46 17.624 146.972 17.832C146.492 18.04 145.932 18.144 145.292 18.144ZM153.416 18.144C152.536 18.144 151.784 17.944 151.16 17.544C150.544 17.144 150.08 16.608 149.768 15.936C149.456 15.256 149.3 14.504 149.3 13.68C149.3 12.856 149.456 12.108 149.768 11.436C150.08 10.756 150.544 10.216 151.16 9.816C151.784 9.416 152.536 9.216 153.416 9.216C154.296 9.216 155.044 9.416 155.66 9.816C156.284 10.216 156.752 10.756 157.064 11.436C157.376 12.108 157.532 12.856 157.532 13.68C157.532 14.504 157.376 15.256 157.064 15.936C156.752 16.608 156.284 17.144 155.66 17.544C155.044 17.944 154.296 18.144 153.416 18.144ZM153.416 17.16C154.08 17.16 154.636 17.008 155.084 16.704C155.54 16.392 155.876 15.976 156.092 15.456C156.316 14.928 156.428 14.336 156.428 13.68C156.428 13.024 156.316 12.436 156.092 11.916C155.876 11.388 155.54 10.972 155.084 10.668C154.636 10.356 154.08 10.2 153.416 10.2C152.752 10.2 152.192 10.356 151.736 10.668C151.288 10.972 150.952 11.388 150.728 11.916C150.512 12.436 150.404 13.024 150.404 13.68C150.404 14.336 150.512 14.928 150.728 15.456C150.952 15.976 151.288 16.392 151.736 16.704C152.192 17.008 152.752 17.16 153.416 17.16ZM158.8 9.36H159.856V17.04H164.2V18H158.8V9.36ZM168.545 18.144C167.825 18.144 167.213 18.016 166.709 17.76C166.205 17.496 165.821 17.112 165.557 16.608C165.293 16.104 165.161 15.492 165.161 14.772V9.36H166.217V14.772C166.217 15.596 166.413 16.204 166.805 16.596C167.205 16.988 167.785 17.184 168.545 17.184C169.305 17.184 169.881 16.988 170.273 16.596C170.673 16.204 170.873 15.596 170.873 14.772V9.36H171.929V14.772C171.929 15.492 171.797 16.104 171.533 16.608C171.269 17.112 170.885 17.496 170.381 17.76C169.877 18.016 169.265 18.144 168.545 18.144ZM175.777 10.32H172.861V9.36H179.785V10.32H176.869V18H175.777V10.32ZM180.843 9.36H181.899V18H180.843V9.36ZM187.283 18.144C186.403 18.144 185.651 17.944 185.027 17.544C184.411 17.144 183.947 16.608 183.635 15.936C183.323 15.256 183.167 14.504 183.167 13.68C183.167 12.856 183.323 12.108 183.635 11.436C183.947 10.756 184.411 10.216 185.027 9.816C185.651 9.416 186.403 9.216 187.283 9.216C188.163 9.216 188.911 9.416 189.527 9.816C190.151 10.216 190.619 10.756 190.931 11.436C191.243 12.108 191.399 12.856 191.399 13.68C191.399 14.504 191.243 15.256 190.931 15.936C190.619 16.608 190.151 17.144 189.527 17.544C188.911 17.944 188.163 18.144 187.283 18.144ZM187.283 17.16C187.947 17.16 188.503 17.008 188.951 16.704C189.407 16.392 189.743 15.976 189.959 15.456C190.183 14.928 190.295 14.336 190.295 13.68C190.295 13.024 190.183 12.436 189.959 11.916C189.743 11.388 189.407 10.972 188.951 10.668C188.503 10.356 187.947 10.2 187.283 10.2C186.619 10.2 186.059 10.356 185.603 10.668C185.155 10.972 184.819 11.388 184.595 11.916C184.379 12.436 184.271 13.024 184.271 13.68C184.271 14.336 184.379 14.928 184.595 15.456C184.819 15.976 185.155 16.392 185.603 16.704C186.059 17.008 186.619 17.16 187.283 17.16ZM192.668 9.36H193.94L198.596 16.548V9.36H199.652V18H198.38L193.724 10.812V18H192.668V9.36Z" fill="white"/>
<path d="M33.0523 14.093L33.2446 12.388C33.346 11.478 33.4139 10.878 33.3606 10.5H33.3794C33.7371 10.4999 34.084 10.3827 34.3625 10.168C34.641 9.95319 34.8344 9.65372 34.9105 9.31928C34.9867 8.98483 34.941 8.63553 34.7811 8.32935C34.6211 8.02317 34.3566 7.77855 34.0314 7.63608C33.7061 7.49361 33.3398 7.46188 32.9931 7.54614C32.6464 7.63041 32.3403 7.8256 32.1255 8.09933C31.9108 8.37305 31.8003 8.70882 31.8124 9.05092C31.8246 9.39301 31.9586 9.72084 32.1923 9.97998C31.8516 10.181 31.4065 10.606 30.7367 11.245C30.2194 11.738 29.9613 11.984 29.6729 12.022C29.5131 12.0431 29.3503 12.0213 29.2026 11.959C28.9372 11.847 28.7596 11.543 28.4053 10.934L26.5348 7.72498C26.3164 7.34998 26.1335 7.03498 25.9684 6.78298C26.3867 6.57903 26.7211 6.24625 26.9176 5.83828C27.1141 5.43031 27.1614 4.9709 27.0518 4.53408C26.9422 4.09725 26.6821 3.70846 26.3135 3.43034C25.9448 3.15222 25.489 3.00098 25.0196 3.00098C24.5502 3.00098 24.0944 3.15222 23.7257 3.43034C23.3571 3.70846 23.097 4.09725 22.9874 4.53408C22.8778 4.9709 22.9251 5.43031 23.1216 5.83828C23.3182 6.24625 23.6525 6.57903 24.0708 6.78298C23.9057 7.03598 23.7228 7.34998 23.5034 7.72498L21.6339 10.934C21.2786 11.543 21.101 11.847 20.8355 11.959C20.6879 12.0213 20.5251 12.0431 20.3653 12.022C20.0779 11.984 19.8198 11.738 19.3026 11.245C18.6327 10.606 18.1876 10.181 17.8469 9.97998C18.0806 9.72084 18.2146 9.39301 18.2268 9.05092C18.2389 8.70882 18.1285 8.37305 17.9137 8.09933C17.6989 7.8256 17.3928 7.63041 17.0461 7.54614C16.6994 7.46188 16.3331 7.49361 16.0078 7.63608C15.6826 7.77855 15.4181 8.02317 15.2582 8.32935C15.0982 8.63553 15.0526 8.98483 15.1287 9.31928C15.2048 9.65372 15.3982 9.95319 15.6767 10.168C15.9552 10.3827 16.3021 10.4999 16.6598 10.5H16.6786C16.6253 10.878 16.6933 11.479 16.7946 12.388L16.9869 14.093C17.0935 15.039 17.1813 15.94 17.2899 16.75H32.7493C32.8579 15.94 32.9457 15.04 33.0523 14.093ZM23.8827 21H26.1565C29.1201 21 30.6019 21 31.5904 20.153C32.022 19.783 32.2947 19.117 32.4922 18.25H17.547C17.7445 19.117 18.0172 19.784 18.4488 20.153C19.4374 21 20.9191 21 23.8827 21Z" fill="white"/>
</svg>
