<svg width="96" height="40" viewBox="0 0 96 40" fill="none" xmlns="http://www.w3.org/2000/svg">
<path fill-rule="evenodd" clip-rule="evenodd" d="M3.724 10.331C4.388 10.331 4.927 10.864 4.927 11.521V28.182C4.927 28.84 4.388 29.372 3.724 29.372C3.4067 29.3736 3.10176 29.2491 2.87618 29.026C2.6506 28.8029 2.52285 28.4993 2.521 28.182V11.522C2.521 10.864 3.059 10.331 3.724 10.331ZM13.562 4.38C14.226 4.38 14.765 4.913 14.765 5.57V34.132C14.765 34.789 14.226 35.322 13.562 35.322C13.4048 35.3229 13.249 35.2929 13.1034 35.2336C12.9578 35.1743 12.8253 35.0869 12.7135 34.9764C12.6017 34.8659 12.5128 34.7344 12.4518 34.5895C12.3908 34.4447 12.3589 34.2892 12.358 34.132V5.57C12.358 4.913 12.898 4.38 13.562 4.38ZM18.482 2C19.139 2 19.674 2.522 19.685 3.17L20.579 36.201C20.587 36.2794 20.5893 36.3583 20.586 36.437V36.488C20.5905 36.6346 20.5581 36.7801 20.492 36.911C20.3757 37.231 20.1634 37.5073 19.8842 37.7022C19.605 37.8971 19.2725 38.0011 18.932 38C18.362 38 17.859 37.714 17.562 37.28C17.3785 37.0662 17.2778 36.7937 17.278 36.512V3.19C17.278 2.533 17.817 2 18.482 2ZM23.586 4.38C24.168 4.38 24.639 4.846 24.639 5.421V33.915C24.6397 33.9377 24.6397 33.9603 24.639 33.983C24.639 34.723 24.033 35.322 23.285 35.322C23.0965 35.3229 22.9098 35.2842 22.7372 35.2084C22.5646 35.1326 22.4098 35.0214 22.2829 34.882C22.156 34.7425 22.0599 34.578 22.0006 34.399C21.9414 34.22 21.9204 34.0306 21.939 33.843L22.533 5.558V5.42C22.533 4.845 23.005 4.38 23.586 4.38ZM9.834 7.95C9.834 7.294 9.296 6.76 8.631 6.76C7.966 6.76 7.428 7.294 7.428 7.95V17.156H9.834V7.951V7.95ZM9.834 19.537H7.428V31.753C7.428 32.41 7.966 32.943 8.631 32.943C9.296 32.943 9.834 32.41 9.834 31.753V19.537ZM28.319 6.76C28.983 6.76 29.522 7.294 29.522 7.95V17.204H27.115V7.951C27.115 7.294 27.654 6.76 28.319 6.76ZM29.522 21.962H32.049V28.182C32.049 28.84 32.588 29.372 33.252 29.372C33.917 29.372 34.455 28.84 34.455 28.182V11.522C34.455 10.864 33.917 10.331 33.252 10.331C32.588 10.331 32.049 10.864 32.049 11.521V19.582H28.249V19.584H27.115V31.753C27.115 32.41 27.654 32.943 28.319 32.943C28.983 32.943 29.522 32.41 29.522 31.753V21.962Z" fill="url(#paint0_linear_2_4)"/>
<path d="M46.196 13.837C45.731 13.837 45.317 13.749 44.954 13.572C44.6116 13.4022 44.3167 13.15 44.096 12.838C43.8797 12.5281 43.7165 12.1844 43.613 11.821C43.5042 11.4358 43.4503 11.0372 43.453 10.637C43.453 10.33 43.485 10.027 43.55 9.727C43.622 9.426 43.732 9.137 43.881 8.86C44.031 8.583 44.209 8.341 44.417 8.135C44.626 7.923 44.882 7.755 45.187 7.631C45.5073 7.49947 45.8507 7.4335 46.197 7.437C46.744 7.437 47.185 7.548 47.519 7.772C47.853 7.991 48.142 8.294 48.386 8.683L47.43 9.223C47.084 8.715 46.673 8.462 46.196 8.462C45.898 8.462 45.636 8.53 45.41 8.665C45.19 8.795 45.02 8.972 44.9 9.195C44.7817 9.41179 44.6941 9.64403 44.64 9.885C44.5859 10.132 44.5591 10.3842 44.56 10.637C44.56 11.25 44.698 11.765 44.972 12.184C45.246 12.602 45.654 12.812 46.196 12.812C46.542 12.812 46.828 12.7 47.054 12.476C47.287 12.252 47.403 11.978 47.403 11.653V11.556H46.303V10.557H48.493V11.415C48.493 12.175 48.279 12.77 47.85 13.201C47.42 13.625 46.87 13.837 46.196 13.837ZM51.547 13.837C50.903 13.837 50.394 13.627 50.018 13.21C49.643 12.791 49.455 12.213 49.455 11.477C49.455 10.74 49.643 10.162 50.018 9.744C50.394 9.32 50.903 9.107 51.547 9.107C52.19 9.107 52.7 9.32 53.075 9.744C53.456 10.162 53.647 10.74 53.647 11.477C53.647 12.213 53.459 12.791 53.084 13.209C52.709 13.628 52.196 13.837 51.547 13.837ZM51.547 12.847C51.874 12.847 52.131 12.727 52.315 12.485C52.506 12.243 52.601 11.907 52.601 11.477C52.601 11.047 52.506 10.707 52.315 10.46C52.131 10.212 51.875 10.089 51.547 10.089C51.3989 10.0852 51.2521 10.1179 51.1196 10.1841C50.987 10.2504 50.8728 10.3482 50.787 10.469C50.597 10.716 50.501 11.052 50.501 11.477C50.501 11.901 50.593 12.237 50.778 12.485C50.8682 12.6021 50.985 12.696 51.1187 12.759C51.2525 12.8219 51.3993 12.8521 51.547 12.847ZM55.948 13.73L54.276 9.213H55.34L56.35 12.033L56.475 12.44C56.511 12.287 56.553 12.15 56.6 12.033L57.592 9.213H58.656L56.985 13.73H55.948ZM61.394 13.837C60.744 13.837 60.229 13.627 59.847 13.21C59.472 12.785 59.284 12.204 59.284 11.468C59.284 10.737 59.474 10.162 59.856 9.744C60.238 9.32 60.75 9.107 61.394 9.107C61.978 9.107 62.454 9.287 62.824 9.647C63.199 10.007 63.387 10.534 63.387 11.229C63.387 11.471 63.375 11.683 63.351 11.866H60.321C60.339 12.184 60.449 12.44 60.651 12.635C60.861 12.829 61.108 12.927 61.394 12.927C61.799 12.927 62.121 12.77 62.359 12.458L63.02 13.13C62.621 13.601 62.079 13.837 61.394 13.837ZM60.33 11.008H62.35C62.326 10.684 62.225 10.439 62.046 10.274C61.9596 10.1903 61.8576 10.1246 61.7456 10.0807C61.6337 10.0367 61.5142 10.0154 61.394 10.018C61.096 10.018 60.848 10.1 60.652 10.265C60.462 10.425 60.354 10.672 60.33 11.008ZM64.457 13.731V9.213H65.503V9.683C65.687 9.299 66 9.107 66.441 9.107C66.763 9.107 67.046 9.211 67.291 9.417L67.139 10.363C66.9113 10.2034 66.639 10.1197 66.361 10.124C66.2481 10.1219 66.136 10.1428 66.0315 10.1855C65.927 10.2281 65.8322 10.2916 65.753 10.372C65.586 10.537 65.503 10.814 65.503 11.202V13.731H64.457ZM70.886 13.731V11.141C70.886 10.439 70.603 10.089 70.036 10.089C69.417 10.089 69.107 10.434 69.107 11.123V13.731H68.061V9.213H69.107V9.638C69.405 9.284 69.807 9.108 70.314 9.108C70.791 9.108 71.178 9.255 71.476 9.549C71.78 9.844 71.932 10.313 71.932 10.955V13.731H70.886ZM78.592 13.731V11.141C78.592 10.439 78.332 10.089 77.814 10.089C77.546 10.089 77.334 10.18 77.18 10.363C77.03 10.54 76.956 10.805 76.956 11.158V13.731H75.91V11.141C75.91 10.439 75.652 10.089 75.133 10.089C74.865 10.089 74.653 10.18 74.498 10.363C74.349 10.54 74.274 10.805 74.274 11.158V13.731H73.228V9.213H74.274V9.629C74.537 9.281 74.909 9.107 75.392 9.107C75.952 9.107 76.352 9.32 76.589 9.744C76.882 9.32 77.341 9.107 77.966 9.107C78.478 9.107 78.884 9.249 79.182 9.532C79.486 9.809 79.637 10.248 79.637 10.849V13.731H78.592ZM82.823 13.837C82.173 13.837 81.658 13.627 81.277 13.21C80.901 12.785 80.714 12.204 80.714 11.468C80.714 10.737 80.904 10.162 81.285 9.744C81.667 9.32 82.179 9.107 82.823 9.107C83.407 9.107 83.883 9.287 84.253 9.647C84.629 10.007 84.817 10.534 84.817 11.229C84.817 11.471 84.804 11.683 84.781 11.866H81.751C81.768 12.184 81.879 12.44 82.081 12.635C82.29 12.829 82.537 12.927 82.823 12.927C83.228 12.927 83.55 12.77 83.788 12.458L84.45 13.13C84.05 13.601 83.508 13.837 82.823 13.837ZM81.759 11.008H83.779C83.755 10.684 83.655 10.439 83.475 10.274C83.3887 10.1903 83.2866 10.1245 83.1747 10.0806C83.0627 10.0367 82.9432 10.0154 82.823 10.018C82.525 10.018 82.278 10.1 82.081 10.265C81.891 10.425 81.783 10.672 81.759 11.008ZM88.71 13.731V11.141C88.71 10.439 88.427 10.089 87.86 10.089C87.24 10.089 86.93 10.434 86.93 11.123V13.731H85.886V9.213H86.931V9.638C87.229 9.284 87.631 9.108 88.138 9.108C88.614 9.108 89.002 9.255 89.3 9.549C89.603 9.844 89.756 10.313 89.756 10.955V13.731H88.71ZM92.395 13.838C91.685 13.838 91.332 13.452 91.332 12.68V10.116H90.652V9.214H91.332V7.844L92.378 7.349V9.214H93.432V10.116H92.378V12.476C92.378 12.765 92.505 12.909 92.762 12.909C92.994 12.909 93.232 12.842 93.477 12.706L93.351 13.634C93.089 13.77 92.771 13.838 92.395 13.838ZM43.676 16.384H45.606C46.029 16.384 46.414 16.443 46.76 16.561C47.105 16.678 47.391 16.835 47.618 17.029C47.8463 17.2261 48.037 17.4629 48.181 17.728C48.336 17.993 48.446 18.273 48.511 18.568C48.583 18.856 48.619 19.16 48.619 19.478C48.619 19.773 48.586 20.061 48.52 20.344C48.46 20.627 48.354 20.907 48.199 21.184C48.049 21.455 47.862 21.694 47.636 21.9C47.3783 22.1181 47.0804 22.2836 46.759 22.387C46.3763 22.5155 45.9746 22.5781 45.571 22.572H43.676V16.384ZM45.723 21.574C46.039 21.574 46.316 21.511 46.553 21.388C46.798 21.264 46.986 21.098 47.117 20.892C47.2512 20.6859 47.3508 20.4592 47.412 20.221C47.478 19.985 47.51 19.737 47.51 19.478C47.51 18.9 47.367 18.408 47.081 18.002C46.795 17.589 46.375 17.382 45.821 17.382H44.748V21.573L45.723 21.574ZM50.802 17.26C50.7447 17.3174 50.6763 17.3626 50.601 17.3929C50.5257 17.4231 50.4451 17.4378 50.364 17.436C50.1975 17.4384 50.0367 17.3748 49.917 17.259C49.8593 17.2009 49.8137 17.1319 49.783 17.056C49.7523 16.9801 49.737 16.8989 49.738 16.817C49.738 16.647 49.798 16.502 49.917 16.384C50.0367 16.2682 50.1975 16.2046 50.364 16.207C50.4452 16.2053 50.5259 16.2202 50.6011 16.2506C50.6764 16.281 50.7448 16.3264 50.802 16.384C50.922 16.502 50.981 16.646 50.981 16.817C50.981 16.988 50.921 17.136 50.802 17.26ZM49.837 22.572V18.055H50.882V22.572H49.837ZM53.818 24.339L53.264 23.508C53.89 23.467 54.322 23.369 54.56 23.216C54.805 23.069 54.927 22.839 54.927 22.526V22.27C54.677 22.541 54.331 22.677 53.89 22.677C53.33 22.677 52.874 22.474 52.522 22.067C52.177 21.654 52.004 21.068 52.004 20.307C52.004 19.577 52.177 19.002 52.522 18.584C52.874 18.159 53.332 17.947 53.899 17.947C54.328 17.947 54.67 18.074 54.927 18.327V18.053H55.973V22.12C55.973 22.868 55.809 23.41 55.481 23.747C55.159 24.083 54.605 24.28 53.818 24.339ZM54.068 21.687C54.444 21.687 54.73 21.539 54.927 21.245V19.37C54.8332 19.2296 54.7053 19.1153 54.5552 19.038C54.4051 18.9607 54.2378 18.9228 54.069 18.928C53.741 18.928 53.488 19.045 53.309 19.281C53.136 19.517 53.049 19.859 53.049 20.307C53.049 20.731 53.139 21.067 53.318 21.315C53.497 21.562 53.747 21.685 54.068 21.685V21.687ZM58.291 17.26C58.2337 17.3174 58.1653 17.3626 58.09 17.3929C58.0147 17.4231 57.9341 17.4378 57.853 17.436C57.6865 17.4384 57.5257 17.3748 57.406 17.259C57.3484 17.2009 57.303 17.1318 57.2724 17.0559C57.2419 16.98 57.2268 16.8988 57.228 16.817C57.228 16.647 57.288 16.502 57.406 16.384C57.5257 16.2682 57.6865 16.2046 57.853 16.207C57.9342 16.2053 58.0149 16.2202 58.0901 16.2506C58.1654 16.281 58.2338 16.3264 58.291 16.384C58.411 16.502 58.47 16.646 58.47 16.817C58.47 16.988 58.41 17.136 58.291 17.26ZM57.326 22.572V18.055H58.372V22.572H57.326ZM61.057 22.678C60.348 22.678 59.994 22.292 59.994 21.52V18.957H59.314V18.055H59.994V16.685L61.039 16.19V18.055H62.094V18.957H61.04V21.317C61.04 21.606 61.169 21.75 61.425 21.75C61.657 21.75 61.895 21.682 62.14 21.547L62.015 22.475C61.753 22.611 61.433 22.678 61.057 22.678ZM65.696 22.57V22.209C65.392 22.521 64.987 22.677 64.481 22.677C63.992 22.677 63.593 22.547 63.283 22.288C62.979 22.023 62.827 21.651 62.827 21.174C62.827 20.684 63 20.314 63.346 20.06C63.697 19.807 64.12 19.68 64.615 19.68C65.05 19.68 65.41 19.76 65.696 19.919V19.68C65.696 19.391 65.622 19.182 65.473 19.052C65.33 18.922 65.106 18.858 64.803 18.858C64.3167 18.8552 63.8415 19.0034 63.443 19.282L63.123 18.442C63.617 18.112 64.213 17.947 64.91 17.947C65.148 17.947 65.357 17.967 65.535 18.009C65.72 18.044 65.908 18.119 66.099 18.23C66.3042 18.3525 66.4639 18.5386 66.554 18.76C66.662 19.002 66.715 19.303 66.715 19.662V22.571L65.696 22.57ZM64.677 21.766C65.077 21.766 65.417 21.622 65.697 21.333V20.75C65.4106 20.621 65.099 20.5575 64.785 20.564C64.505 20.564 64.278 20.614 64.105 20.714C64.0229 20.7585 63.955 20.8253 63.9092 20.9067C63.8634 20.9881 63.8415 21.0807 63.846 21.174C63.8432 21.2583 63.8614 21.342 63.8989 21.4176C63.9364 21.4932 63.9921 21.5582 64.061 21.607C64.204 21.713 64.409 21.766 64.677 21.766ZM68.01 22.572V16.676L69.056 16.19V22.572H68.01ZM45.678 31.519C45.106 31.519 44.611 31.377 44.194 31.095C43.7835 30.807 43.4764 30.3948 43.318 29.919L44.31 29.556C44.442 29.845 44.63 30.078 44.874 30.255C45.118 30.425 45.398 30.511 45.714 30.511C46.042 30.511 46.301 30.437 46.492 30.29C46.688 30.143 46.786 29.93 46.786 29.653C46.7869 29.5448 46.7593 29.4382 46.706 29.344C46.6581 29.2511 46.5945 29.1672 46.518 29.096C46.4279 29.0152 46.3252 28.9497 46.214 28.902C46.1002 28.8471 45.9841 28.7971 45.866 28.752C45.7284 28.6955 45.5882 28.6454 45.446 28.602C45.261 28.538 45.0763 28.473 44.892 28.407C44.7237 28.3399 44.5594 28.2631 44.4 28.177C44.2329 28.0871 44.0794 27.974 43.944 27.841C43.8298 27.7086 43.7364 27.5595 43.667 27.399C43.588 27.2023 43.5486 26.9919 43.551 26.78C43.551 26.309 43.735 25.914 44.105 25.596C44.475 25.277 44.975 25.118 45.607 25.118C46.131 25.118 46.566 25.242 46.912 25.49C47.257 25.731 47.49 26.05 47.609 26.444L46.643 26.763C46.453 26.338 46.083 26.126 45.535 26.126C45.255 26.126 45.035 26.185 44.874 26.303C44.7976 26.3581 44.7363 26.4314 44.6956 26.5163C44.6549 26.6012 44.6361 26.695 44.641 26.789C44.641 26.93 44.701 27.057 44.82 27.169C44.945 27.281 45.076 27.367 45.213 27.426C45.356 27.479 45.565 27.549 45.839 27.638C46.018 27.703 46.152 27.753 46.241 27.788C46.337 27.818 46.468 27.871 46.635 27.948C46.897 28.0605 47.1386 28.2156 47.35 28.407C47.475 28.513 47.57 28.625 47.636 28.743C47.7922 29.0209 47.8748 29.3342 47.876 29.653C47.876 30.231 47.668 30.688 47.251 31.023C46.841 31.353 46.316 31.519 45.678 31.519ZM50.884 31.518C50.234 31.518 49.719 31.308 49.337 30.89C48.962 30.466 48.774 29.885 48.774 29.148C48.774 28.418 48.965 27.843 49.346 27.425C49.728 27 50.24 26.788 50.884 26.788C51.468 26.788 51.944 26.968 52.314 27.328C52.689 27.687 52.877 28.214 52.877 28.91C52.877 29.151 52.865 29.364 52.841 29.546H49.811C49.829 29.865 49.939 30.121 50.142 30.316C50.35 30.51 50.598 30.607 50.884 30.607C51.289 30.607 51.611 30.451 51.849 30.139L52.511 30.811C52.111 31.282 51.569 31.518 50.884 31.518ZM49.82 28.688H51.84C51.816 28.365 51.715 28.12 51.536 27.955C51.4496 27.8713 51.3476 27.8056 51.2356 27.7617C51.1237 27.7177 51.0042 27.6964 50.884 27.699C50.586 27.699 50.339 27.781 50.142 27.946C49.952 28.106 49.844 28.352 49.82 28.688ZM53.946 31.412V26.894H54.992V27.363C55.177 26.98 55.49 26.788 55.931 26.788C56.252 26.788 56.535 26.891 56.78 27.098L56.628 28.044C56.4005 27.884 56.1281 27.8 55.85 27.804C55.7371 27.8019 55.625 27.8228 55.5205 27.8655C55.416 27.9081 55.3212 27.9716 55.242 28.052C55.076 28.217 54.992 28.494 54.992 28.883V31.412H53.946ZM58.846 31.412L57.175 26.895H58.239L59.249 29.715C59.32 29.95 59.362 30.086 59.374 30.121C59.4052 29.9827 59.447 29.8469 59.499 29.715L60.491 26.895H61.555L59.883 31.412H58.846ZM63.424 26.099C63.3668 26.1566 63.2984 26.202 63.2231 26.2324C63.1479 26.2628 63.0672 26.2777 62.986 26.276C62.8195 26.2784 62.6587 26.2148 62.539 26.099C62.4813 26.0409 62.4357 25.9719 62.405 25.896C62.3743 25.8201 62.359 25.7389 62.36 25.657C62.36 25.486 62.42 25.342 62.54 25.224C62.6595 25.1085 62.8198 25.0449 62.986 25.047C63.0672 25.0453 63.1479 25.0602 63.2231 25.0906C63.2984 25.121 63.3668 25.1664 63.424 25.224C63.544 25.342 63.603 25.486 63.603 25.657C63.603 25.827 63.543 25.975 63.424 26.099ZM62.459 31.412V26.895H63.504V31.412H62.459ZM66.665 31.518C66.039 31.518 65.542 31.308 65.172 30.89C64.809 30.472 64.627 29.894 64.627 29.157C64.627 28.421 64.809 27.843 65.172 27.425C65.542 27 66.039 26.788 66.665 26.788C67.606 26.788 68.211 27.204 68.479 28.035L67.487 28.362C67.338 27.972 67.077 27.778 66.701 27.778C66.556 27.7728 66.4121 27.8042 66.2825 27.8692C66.1528 27.9342 66.0416 28.0308 65.959 28.15C65.78 28.397 65.691 28.733 65.691 29.157C65.691 29.576 65.777 29.909 65.95 30.157C66.03 30.2717 66.1371 30.3649 66.2619 30.428C66.3867 30.4912 66.5252 30.5225 66.665 30.519C67.088 30.519 67.365 30.301 67.496 29.865L68.497 30.165C68.235 31.067 67.624 31.518 66.665 31.518ZM71.475 31.518C70.825 31.518 70.31 31.308 69.928 30.89C69.553 30.466 69.365 29.885 69.365 29.148C69.365 28.418 69.555 27.843 69.937 27.425C70.319 27 70.831 26.788 71.475 26.788C72.059 26.788 72.535 26.968 72.905 27.328C73.28 27.687 73.468 28.214 73.468 28.91C73.468 29.151 73.456 29.364 73.433 29.546H70.403C70.42 29.865 70.53 30.121 70.733 30.316C70.941 30.51 71.189 30.607 71.475 30.607C71.88 30.607 72.202 30.451 72.44 30.139L73.101 30.811C72.702 31.282 72.16 31.518 71.475 31.518ZM70.411 28.688H72.431C72.407 28.365 72.306 28.12 72.127 27.955C72.0406 27.8714 71.9385 27.8057 71.8266 27.7618C71.7147 27.7178 71.5952 27.6965 71.475 27.699C71.177 27.699 70.93 27.781 70.733 27.946C70.543 28.106 70.435 28.352 70.411 28.688ZM75.977 31.518C75.607 31.518 75.26 31.448 74.932 31.306C74.61 31.164 74.366 30.976 74.199 30.74L74.914 30.139C75.236 30.457 75.59 30.616 75.977 30.616C76.472 30.616 76.72 30.469 76.72 30.174C76.72 30.074 76.675 29.983 76.585 29.9C76.5062 29.8204 76.4124 29.7571 76.309 29.714C76.1534 29.6409 75.9953 29.5732 75.835 29.511C75.31 29.341 74.925 29.146 74.682 28.927C74.443 28.704 74.324 28.409 74.324 28.044C74.324 27.649 74.476 27.342 74.78 27.124C75.09 26.9 75.48 26.788 75.95 26.788C76.642 26.788 77.187 27.021 77.586 27.486L76.862 28.07C76.6206 27.8278 76.293 27.6911 75.951 27.69C75.54 27.69 75.334 27.814 75.334 28.061C75.334 28.185 75.409 28.291 75.557 28.379C75.712 28.468 75.937 28.559 76.227 28.653C76.723 28.819 77.095 29.013 77.345 29.237C77.601 29.461 77.73 29.773 77.73 30.174C77.73 30.604 77.572 30.937 77.256 31.173C76.94 31.403 76.514 31.518 75.977 31.518Z" fill="#E87426"/>
<defs>
<linearGradient id="paint0_linear_2_4" x1="3" y1="20" x2="34" y2="20" gradientUnits="userSpaceOnUse">
<stop stop-color="#FED00F"/>
<stop offset="1" stop-color="#E87426"/>
</linearGradient>
</defs>
</svg>
