<svg width="96" height="40" fill="none" xmlns="http://www.w3.org/2000/svg"><path fill-rule="evenodd" clip-rule="evenodd" d="M3.724 10.331c.664 0 1.203.533 1.203 1.19v16.661c0 .658-.539 1.19-1.203 1.19a1.197 1.197 0 0 1-1.203-1.19v-16.66c0-.658.538-1.19 1.203-1.19Zm9.838-5.951c.664 0 1.203.533 1.203 1.19v28.562c0 .657-.539 1.19-1.203 1.19a1.197 1.197 0 0 1-1.204-1.19V5.57c0-.657.54-1.19 1.204-1.19ZM18.482 2c.657 0 1.192.522 1.203 1.17l.894 33.031a1.65 1.65 0 0 1 .007.236v.051a.879.879 0 0 1-.094.423A1.654 1.654 0 0 1 18.932 38c-.57 0-1.073-.286-1.37-.72a1.178 1.178 0 0 1-.284-.768V3.19c0-.657.539-1.19 1.204-1.19Zm5.104 2.38c.582 0 1.053.466 1.053 1.041v28.494a1.155 1.155 0 0 1 0 .068c0 .74-.606 1.339-1.354 1.339a1.346 1.346 0 0 1-1.346-1.479l.594-28.285V5.42c0-.575.472-1.041 1.053-1.041ZM9.834 7.95c0-.656-.538-1.19-1.203-1.19s-1.203.534-1.203 1.19v9.206h2.406V7.951Zm0 11.587H7.428v12.216c0 .657.538 1.19 1.203 1.19s1.203-.533 1.203-1.19V19.537ZM28.319 6.76c.664 0 1.203.534 1.203 1.19v9.254h-2.407V7.951c0-.657.539-1.19 1.204-1.19Zm1.203 15.202h2.527v6.22c0 .658.539 1.19 1.203 1.19.665 0 1.203-.532 1.203-1.19v-16.66c0-.658-.538-1.191-1.203-1.191-.664 0-1.203.533-1.203 1.19v8.061h-3.8v.002h-1.134v12.169c0 .657.539 1.19 1.204 1.19.664 0 1.203-.533 1.203-1.19v-9.79Z" fill="#fff"/><path d="M46.196 13.837c-.465 0-.879-.088-1.242-.265a2.306 2.306 0 0 1-.858-.734 3.407 3.407 0 0 1-.483-1.017 4.252 4.252 0 0 1-.16-1.184c0-.307.032-.61.097-.91.072-.301.182-.59.331-.867.15-.277.328-.519.536-.725.209-.212.465-.38.77-.504a2.59 2.59 0 0 1 1.01-.194c.547 0 .988.111 1.322.335.334.219.623.522.867.911l-.956.54c-.346-.508-.757-.761-1.234-.761-.298 0-.56.068-.786.203-.22.13-.39.307-.51.53a2.655 2.655 0 0 0-.26.69 3.46 3.46 0 0 0-.08.752c0 .613.138 1.128.412 1.547.274.418.682.628 1.224.628.346 0 .632-.112.858-.336.233-.224.349-.498.349-.823v-.097h-1.1v-.999h2.19v.858c0 .76-.214 1.355-.643 1.786-.43.424-.98.636-1.654.636Zm5.351 0c-.644 0-1.153-.21-1.529-.627-.375-.419-.563-.997-.563-1.733 0-.737.188-1.315.563-1.733.376-.424.885-.637 1.529-.637.643 0 1.153.213 1.528.637.381.418.572.996.572 1.733 0 .736-.188 1.314-.563 1.732-.375.419-.888.628-1.537.628Zm0-.99c.327 0 .584-.12.768-.362.191-.242.286-.578.286-1.008 0-.43-.095-.77-.286-1.017-.184-.248-.44-.371-.768-.371a.904.904 0 0 0-.76.38c-.19.247-.286.583-.286 1.008 0 .424.092.76.277 1.008a.93.93 0 0 0 .769.362Zm4.401.883-1.672-4.517h1.064l1.01 2.82.125.407c.036-.153.078-.29.125-.407l.992-2.82h1.064l-1.671 4.517h-1.037Zm5.446.107c-.65 0-1.165-.21-1.547-.627-.375-.425-.563-1.006-.563-1.742 0-.731.19-1.306.572-1.724.382-.424.894-.637 1.538-.637.584 0 1.06.18 1.43.54.375.36.563.887.563 1.582 0 .242-.012.454-.036.637h-3.03c.018.318.128.574.33.769.21.194.457.292.743.292.405 0 .727-.157.965-.469l.661.672c-.399.471-.941.707-1.626.707Zm-1.064-2.829h2.02c-.024-.324-.125-.569-.304-.734a.909.909 0 0 0-.652-.256c-.298 0-.546.082-.742.247-.19.16-.298.407-.322.743Zm4.127 2.723V9.213h1.046v.47c.184-.384.497-.576.938-.576.322 0 .605.104.85.31l-.152.946a1.32 1.32 0 0 0-.778-.239.832.832 0 0 0-.608.248c-.167.165-.25.442-.25.83v2.529h-1.046Zm6.429 0v-2.59c0-.702-.283-1.052-.85-1.052-.619 0-.929.345-.929 1.034v2.608h-1.046V9.213h1.046v.425c.298-.354.7-.53 1.207-.53.477 0 .864.147 1.162.441.304.295.456.764.456 1.406v2.776h-1.046Zm7.706 0v-2.59c0-.702-.26-1.052-.778-1.052-.268 0-.48.091-.634.274-.15.177-.224.442-.224.795v2.573H75.91v-2.59c0-.702-.258-1.052-.777-1.052-.268 0-.48.091-.635.274-.149.177-.224.442-.224.795v2.573h-1.046V9.213h1.046v.416c.263-.348.635-.522 1.118-.522.56 0 .96.213 1.197.637.293-.424.752-.637 1.377-.637.512 0 .918.142 1.216.425.304.277.455.716.455 1.317v2.882h-1.045Zm4.231.106c-.65 0-1.165-.21-1.546-.627-.376-.425-.563-1.006-.563-1.742 0-.731.19-1.306.571-1.724.382-.424.894-.637 1.538-.637.584 0 1.06.18 1.43.54.376.36.564.887.564 1.582 0 .242-.013.454-.036.637h-3.03c.017.318.128.574.33.769.209.194.456.292.742.292.405 0 .727-.157.965-.469l.662.672c-.4.471-.942.707-1.627.707Zm-1.064-2.829h2.02c-.024-.324-.124-.569-.304-.734a.908.908 0 0 0-.652-.256c-.298 0-.545.082-.742.247-.19.16-.298.407-.322.743Zm6.951 2.723v-2.59c0-.702-.283-1.052-.85-1.052-.62 0-.93.345-.93 1.034v2.608h-1.044V9.213h1.045v.425c.298-.354.7-.53 1.207-.53.476 0 .864.147 1.162.441.303.295.456.764.456 1.406v2.776H88.71Zm3.685.107c-.71 0-1.063-.386-1.063-1.158v-2.564h-.68v-.902h.68v-1.37l1.046-.495v1.865h1.054v.902h-1.054v2.36c0 .289.127.433.384.433.232 0 .47-.067.715-.203l-.126.928c-.262.136-.58.204-.956.204Zm-48.719 2.546h1.93c.423 0 .808.059 1.154.177.345.117.631.274.858.468a2.5 2.5 0 0 1 .563.699c.155.265.265.545.33.84.072.288.108.592.108.91 0 .295-.033.583-.099.866-.06.283-.166.563-.321.84-.15.271-.337.51-.563.716a2.58 2.58 0 0 1-.877.487 3.564 3.564 0 0 1-1.188.185h-1.895v-6.188Zm2.047 5.19c.316 0 .593-.063.83-.186.245-.124.433-.29.564-.496a2.26 2.26 0 0 0 .295-.671c.066-.236.098-.484.098-.743 0-.578-.143-1.07-.429-1.476-.286-.413-.706-.62-1.26-.62h-1.073v4.191h.975Zm5.079-4.314a.6.6 0 0 1-.438.176.63.63 0 0 1-.447-.177.616.616 0 0 1-.179-.442c0-.17.06-.315.179-.433a.63.63 0 0 1 .447-.177.6.6 0 0 1 .438.177c.12.118.179.262.179.433 0 .171-.06.318-.179.442Zm-.965 5.312v-4.517h1.045v4.517h-1.045Zm3.981 1.767-.554-.831c.626-.041 1.058-.139 1.296-.292.245-.147.367-.377.367-.69v-.256c-.25.271-.596.407-1.037.407-.56 0-1.016-.203-1.368-.61-.345-.413-.518-.999-.518-1.76 0-.73.173-1.305.518-1.723.352-.425.81-.637 1.377-.637.429 0 .771.127 1.028.38v-.274h1.046v4.067c0 .748-.164 1.29-.492 1.627-.322.336-.876.533-1.663.592Zm.25-2.652c.376 0 .662-.148.859-.442V19.37a.995.995 0 0 0-.858-.442c-.328 0-.581.117-.76.353-.173.236-.26.578-.26 1.026 0 .424.09.76.269 1.008.179.247.429.37.75.37Zm4.223-4.427a.6.6 0 0 1-.438.176.63.63 0 0 1-.447-.177.615.615 0 0 1-.178-.442c0-.17.06-.315.178-.433a.63.63 0 0 1 .447-.177.6.6 0 0 1 .438.177c.12.118.179.262.179.433 0 .171-.06.318-.179.442Zm-.965 5.312v-4.517h1.046v4.517h-1.046Zm3.731.106c-.709 0-1.063-.386-1.063-1.158v-2.563h-.68v-.902h.68v-1.37l1.045-.495v1.865h1.055v.902H61.04v2.36c0 .289.129.433.385.433.232 0 .47-.068.715-.203l-.125.928c-.262.136-.581.203-.957.203Zm4.639-.108v-.361c-.304.312-.709.468-1.215.468-.489 0-.888-.13-1.198-.389-.304-.265-.456-.637-.456-1.114 0-.49.173-.86.519-1.114.351-.253.774-.38 1.269-.38.435 0 .795.08 1.081.239v-.239c0-.289-.074-.498-.223-.628-.143-.13-.367-.194-.67-.194a2.35 2.35 0 0 0-1.36.424l-.32-.84c.494-.33 1.09-.495 1.787-.495.238 0 .447.02.625.062.185.035.373.11.564.221a1.1 1.1 0 0 1 .455.53c.108.242.161.543.161.902v2.909h-1.019Zm-1.019-.804c.4 0 .74-.144 1.02-.433v-.583a2.115 2.115 0 0 0-.912-.186c-.28 0-.507.05-.68.15a.496.496 0 0 0-.259.46.51.51 0 0 0 .215.433c.143.106.348.16.616.16Zm3.333.806v-5.896l1.046-.486v6.382h-1.045Zm-22.332 8.947c-.572 0-1.067-.142-1.484-.424a2.339 2.339 0 0 1-.876-1.176l.992-.363c.132.289.32.522.564.699.244.17.524.256.84.256.328 0 .587-.074.778-.221.196-.147.294-.36.294-.637a.616.616 0 0 0-.08-.309.907.907 0 0 0-.188-.248 1.112 1.112 0 0 0-.304-.194 4.476 4.476 0 0 0-.348-.15 4.79 4.79 0 0 0-.42-.15 53.513 53.513 0 0 1-.554-.195 4.712 4.712 0 0 1-.492-.23 2.01 2.01 0 0 1-.456-.336 1.724 1.724 0 0 1-.277-.442 1.613 1.613 0 0 1-.116-.619c0-.471.184-.866.554-1.184.37-.319.87-.478 1.502-.478.524 0 .959.124 1.305.372.345.241.578.56.697.954l-.966.319c-.19-.425-.56-.637-1.108-.637-.28 0-.5.059-.661.177a.563.563 0 0 0-.233.486c0 .141.06.268.179.38.125.112.256.198.393.257.143.053.352.123.626.212.179.065.313.115.402.15.096.03.227.083.394.16a2.582 2.582 0 0 1 .715.459c.125.106.22.218.286.336a1.872 1.872 0 0 1 .24.91c0 .578-.208 1.035-.625 1.37-.41.33-.935.496-1.573.496Zm5.206-.001c-.65 0-1.165-.21-1.547-.628-.375-.424-.563-1.005-.563-1.742 0-.73.191-1.305.572-1.723.382-.425.894-.637 1.538-.637.584 0 1.06.18 1.43.54.375.359.563.886.563 1.582 0 .241-.012.454-.036.636h-3.03c.018.319.128.575.331.77.208.194.456.291.742.291.405 0 .727-.156.965-.468l.662.672c-.4.471-.942.707-1.627.707Zm-1.064-2.83h2.02c-.024-.323-.125-.568-.304-.733a.909.909 0 0 0-.652-.256c-.298 0-.545.082-.742.247-.19.16-.298.407-.322.743Zm4.126 2.724v-4.518h1.046v.469c.185-.383.498-.575.939-.575.321 0 .604.103.849.31l-.152.946a1.319 1.319 0 0 0-.778-.24.832.832 0 0 0-.608.248c-.166.165-.25.442-.25.831v2.529h-1.046Zm4.9 0-1.671-4.517h1.064l1.01 2.82c.071.235.113.371.125.406a2.77 2.77 0 0 1 .125-.406l.992-2.82h1.064l-1.672 4.517h-1.037Zm4.578-5.313a.6.6 0 0 1-.438.177.63.63 0 0 1-.447-.177.616.616 0 0 1-.179-.442c0-.171.06-.315.18-.433a.63.63 0 0 1 .446-.177.6.6 0 0 1 .438.177c.12.118.179.262.179.433 0 .17-.06.318-.179.442Zm-.965 5.313v-4.517h1.045v4.517H62.46Zm4.206.106c-.626 0-1.123-.21-1.493-.628-.363-.418-.545-.996-.545-1.733 0-.736.182-1.314.545-1.732.37-.425.867-.637 1.493-.637.941 0 1.546.416 1.814 1.247l-.992.327c-.149-.39-.41-.584-.786-.584a.865.865 0 0 0-.742.372c-.179.247-.268.583-.268 1.007 0 .419.086.752.259 1a.846.846 0 0 0 .715.362c.423 0 .7-.218.831-.654l1.001.3c-.262.902-.873 1.353-1.832 1.353Zm4.81 0c-.65 0-1.165-.21-1.547-.628-.375-.424-.563-1.005-.563-1.742 0-.73.19-1.305.572-1.723.382-.425.894-.637 1.538-.637.584 0 1.06.18 1.43.54.375.359.563.886.563 1.582 0 .241-.012.454-.035.636h-3.03c.017.319.127.575.33.77.208.194.456.291.742.291.405 0 .727-.156.965-.468l.661.672c-.399.471-.941.707-1.626.707Zm-1.064-2.83h2.02c-.024-.323-.125-.568-.304-.733a.91.91 0 0 0-.652-.256c-.298 0-.545.082-.742.247-.19.16-.298.407-.322.743Zm5.566 2.83c-.37 0-.717-.07-1.045-.212-.322-.142-.566-.33-.733-.566l.715-.601c.322.318.676.477 1.063.477.495 0 .743-.147.743-.442 0-.1-.045-.191-.135-.274a.847.847 0 0 0-.276-.186 7.44 7.44 0 0 0-.474-.203c-.525-.17-.91-.365-1.153-.584-.239-.223-.358-.518-.358-.883 0-.395.152-.702.456-.92.31-.224.7-.336 1.17-.336.692 0 1.237.233 1.636.698l-.724.584a1.292 1.292 0 0 0-.911-.38c-.411 0-.617.124-.617.371 0 .124.075.23.223.318.155.089.38.18.67.274.496.166.868.36 1.118.584.256.224.385.536.385.937 0 .43-.158.763-.474.999-.316.23-.742.345-1.279.345Z" fill="#fff"/></svg>