<svg width="2500" height="2500" viewBox="0 0 2500 2500" fill="none" xmlns="http://www.w3.org/2000/svg">
<g clip-path="url(#clip0_11_30)">
<path fill-rule="evenodd" clip-rule="evenodd" d="M454.24 1400.66C454.24 1400.66 414.514 1400.51 395.059 1391.07C359.911 1374.07 353.154 1321.81 348.653 1278.65C348.174 1273.9 315.425 1263.53 299.809 1249.25C274.44 1226.1 278.318 1153.7 278.318 1149.04C278.318 1144.39 237.321 1124.28 237.321 1079.45C237.321 1060.52 237.619 954.614 237.619 954.614C210.863 921.424 197.958 919.31 173.082 928.35C146.572 936.456 138.232 955.82 110.658 959.711L110.308 1281.37C110.308 1378.63 128.167 1473.88 227.814 1548.68C320.224 1617.94 391.778 1616.23 454.15 1729.75C455.213 1731.59 454.085 1373.9 454.24 1400.66ZM837.562 1061.43C835.007 1060.39 834.527 1059.69 834.527 1056.5C834.527 1048.53 835.162 1039.84 835.331 1037.53C835.487 1035.35 835.966 1033.76 837.225 1033.76C838.677 1033.76 838.833 1035.07 838.833 1036.21C838.833 1038.1 839.468 1041.13 840.272 1043.6C843.774 1054.31 853.177 1058.23 863.047 1058.23C877.392 1058.23 884.396 1049.4 884.396 1041.71C884.396 1034.62 881.996 1027.81 868.767 1018.53L861.452 1013.33C843.917 1000.88 837.86 990.734 837.86 979.01C837.86 963.07 852.529 951.631 874.681 951.631C885.031 951.631 891.736 953.083 895.887 954.095C897.313 954.38 898.092 954.821 898.092 955.833C898.092 957.726 897.456 961.916 897.456 973.199C897.456 976.39 896.989 977.557 895.705 977.557C894.59 977.557 894.11 976.688 894.11 974.95C894.11 973.64 893.319 969.153 889.973 965.391C887.573 962.629 882.956 958.271 872.593 958.271C860.804 958.271 853.644 964.51 853.644 973.186C853.644 979.866 857.315 984.924 870.544 994.055L875.005 997.103C894.11 1010.58 901.126 1020.28 901.126 1034.04C901.126 1042.44 897.625 1052.43 886.159 1059.24C878.17 1063.87 869.26 1065.18 860.817 1065.18C851.582 1065.19 844.397 1064.18 837.562 1061.43ZM967.726 995.663C967.726 973.653 967.726 969.581 967.415 964.951C967.091 960.035 965.495 957.558 961.981 956.844C960.102 956.439 958.183 956.252 956.261 956.287C954.666 956.287 953.706 956.001 953.706 954.834C953.706 953.965 955.003 953.667 957.532 953.667C963.589 953.667 973.641 954.108 978.258 954.108C982.24 954.108 991.643 953.667 997.699 953.667C999.775 953.667 1001.05 953.952 1001.05 954.834C1001.05 956.001 1000.09 956.287 998.504 956.287C996.899 956.301 995.299 956.444 993.718 956.715C989.399 957.441 988.141 959.905 987.804 964.963C987.505 969.594 987.505 973.666 987.505 995.676V1021.16C987.505 1035.23 987.505 1046.67 988.141 1052.91C988.621 1056.82 989.736 1059.42 994.509 1059.99C996.74 1060.28 1000.25 1060.58 1002.64 1060.58C1004.39 1060.58 1005.2 1061 1005.2 1061.74C1005.2 1062.76 1003.9 1063.18 1002.16 1063.18C991.643 1063.18 981.617 1062.76 977.298 1062.76C973.64 1062.76 963.589 1063.18 957.221 1063.18C955.146 1063.18 954.03 1062.76 954.03 1061.74C954.03 1061 954.666 1060.58 956.585 1060.58C958.972 1060.58 960.891 1060.29 962.318 1059.99C965.508 1059.42 966.468 1056.96 966.922 1052.74C967.726 1046.67 967.726 1035.23 967.726 1021.16V995.663ZM1077.35 1043.47C1077.66 1054.75 1079.73 1058.53 1082.92 1059.55C1085.63 1060.41 1088.66 1060.56 1091.21 1060.56C1092.96 1060.56 1093.92 1060.85 1093.92 1061.73C1093.92 1062.89 1092.48 1063.17 1090.25 1063.17C1079.89 1063.17 1073.52 1062.74 1070.49 1062.74C1069.06 1062.74 1061.56 1063.17 1053.27 1063.17C1051.2 1063.17 1049.77 1063.04 1049.77 1061.73C1049.77 1060.86 1050.73 1060.56 1052.32 1060.56C1054.39 1060.56 1057.26 1060.41 1059.49 1059.85C1063.64 1058.68 1064.27 1054.47 1064.43 1041.89L1065.87 956.131C1065.87 953.226 1066.35 951.203 1067.94 951.203C1069.69 951.203 1071.12 953.096 1073.83 955.703C1090.03 971.484 1106.5 986.986 1123.23 1002.2C1134.08 1012.04 1155.59 1032.9 1158.29 1035.23H1159.1L1157.5 970.177C1157.34 961.345 1155.9 958.582 1152.08 957.143C1149.69 956.287 1145.87 956.287 1143.65 956.287C1141.74 956.287 1141.09 955.846 1141.09 954.977C1141.09 953.809 1142.86 953.654 1145.24 953.654C1153.53 953.654 1161.16 954.095 1164.53 954.095C1166.28 954.095 1172.34 953.654 1180.13 953.654C1182.21 953.654 1183.8 953.809 1183.8 954.977C1183.8 955.833 1182.84 956.287 1180.92 956.287C1179.34 956.287 1178.06 956.287 1176.15 956.715C1171.69 957.856 1170.4 960.917 1170.25 969.01L1168.5 1060.42C1168.5 1063.61 1167.86 1064.92 1166.42 1064.92C1164.67 1064.92 1162.77 1063.33 1161 1061.74C1150.96 1053.05 1130.56 1034.07 1113.99 1019.15C1096.63 1003.5 1078.93 985.404 1076.06 982.641H1075.6L1077.35 1043.47ZM1343.94 1053.46C1343.94 1057.37 1343.78 1057.66 1341.89 1058.68C1331.5 1063.6 1315.87 1065.19 1303.46 1065.19C1264.42 1065.19 1229.83 1048.4 1229.83 1008.4C1229.72 998.727 1232.24 989.206 1237.13 980.86C1242.02 972.514 1249.09 965.66 1257.59 961.034C1272.87 952.629 1287.05 951.618 1300.43 951.618C1311.45 951.618 1325.46 953.356 1328.65 953.939C1332 954.523 1337.59 955.392 1341.24 955.535C1343.14 955.69 1343.47 956.274 1343.47 957.259C1343.47 958.855 1342.36 962.927 1342.36 981.02C1342.36 983.329 1341.9 984.068 1340.61 984.068C1339.49 984.068 1339.19 983.329 1339.01 982.174C1338.56 978.854 1337.74 974.211 1333.59 970.151C1328.83 965.521 1316.06 958.842 1298.05 958.842C1289.29 958.842 1277.66 959.425 1266.51 967.83C1257.59 974.639 1251.84 985.508 1251.84 1003.33C1251.84 1034.47 1273.68 1057.79 1307.3 1057.79C1311.45 1057.79 1317.03 1057.79 1320.85 1056.19C1323.24 1055.18 1323.89 1053.29 1323.89 1050.82V1037.22C1323.89 1029.98 1323.89 1024.48 1323.71 1020.12C1323.55 1015.2 1322.11 1012.89 1316.87 1011.86C1314.81 1011.54 1312.73 1011.4 1310.65 1011.43C1309.21 1011.43 1308.23 1011.14 1308.23 1010.27C1308.23 1009.1 1309.38 1008.81 1311.61 1008.81C1319.89 1008.81 1329.92 1009.27 1334.71 1009.27C1339.65 1009.27 1348.08 1008.81 1353.37 1008.81C1355.42 1008.81 1356.53 1009.1 1356.53 1010.27C1356.53 1011.14 1355.57 1011.43 1354.46 1011.43C1353.19 1011.43 1352.07 1011.56 1350.15 1011.86C1345.87 1012.59 1344.28 1015.07 1344.12 1020.12C1343.94 1024.48 1343.94 1030.27 1343.94 1037.52V1053.46ZM1426.65 1018.11C1426.01 1018.11 1425.84 1017.67 1426.01 1017.1L1440.66 981.474C1440.84 980.89 1441.14 980.151 1441.62 980.151C1442.1 980.151 1442.25 980.89 1442.42 981.474L1456.75 1017.24C1456.91 1017.67 1456.75 1018.11 1455.95 1018.11H1426.65ZM1459 1025.36C1459.79 1025.36 1460.27 1025.65 1460.59 1026.38L1473.33 1057.1C1474.13 1058.81 1473.03 1060.14 1471.91 1060.41C1470.32 1060.56 1469.66 1060.85 1469.66 1061.73C1469.66 1062.74 1471.58 1062.74 1474.47 1062.89C1487.2 1063.17 1498.84 1063.17 1504.56 1063.17C1510.46 1063.17 1511.9 1062.89 1511.9 1061.73C1511.9 1060.71 1511.09 1060.56 1509.82 1060.56C1507.57 1060.56 1505.32 1060.37 1503.11 1059.98C1499.78 1059.25 1495.15 1057.24 1489.1 1044.2C1478.89 1022.17 1453.41 963.057 1449.58 955.106C1447.98 951.773 1447.02 950.476 1445.57 950.476C1443.98 950.476 1443.04 952.059 1441.11 956.274L1401.14 1047.24C1397.92 1054.48 1394.91 1059.41 1387.58 1060.28C1385.94 1060.45 1384.29 1060.54 1382.64 1060.56C1381.35 1060.56 1380.72 1060.85 1380.72 1061.73C1380.72 1062.89 1381.68 1063.17 1383.76 1063.17C1392.05 1063.17 1400.8 1062.74 1402.55 1062.74C1407.52 1062.74 1414.35 1063.17 1419.45 1063.17C1421.2 1063.17 1422.16 1062.89 1422.16 1061.73C1422.16 1060.86 1421.68 1060.56 1419.77 1060.56H1417.36C1412.45 1060.56 1411.01 1058.68 1411.01 1056.06C1411.01 1054.33 1411.8 1050.85 1413.39 1047.23L1421.98 1026.49C1422.3 1025.65 1422.64 1025.35 1423.42 1025.35L1459 1025.36ZM1557.33 995.663C1557.33 973.653 1557.33 969.581 1557.01 964.951C1556.68 960.035 1555.41 957.713 1550.17 956.702C1548.11 956.384 1546.03 956.241 1543.95 956.274C1542.2 956.274 1541.24 955.988 1541.24 954.964C1541.24 953.939 1542.35 953.641 1544.74 953.641C1553.19 953.641 1563.23 954.082 1567.69 954.082C1574.23 954.082 1583.48 953.641 1590.79 953.641C1610.73 953.641 1617.9 959.737 1620.46 961.903C1623.96 964.938 1628.41 971.461 1628.41 979.152C1628.41 999.71 1611.84 1014.2 1589.22 1014.2C1588.42 1014.2 1586.64 1014.2 1585.85 1014.05C1585.06 1013.91 1583.96 1013.77 1583.96 1012.73C1583.96 1011.58 1585.07 1011.15 1588.42 1011.15C1597.34 1011.15 1609.77 1002.02 1609.77 987.259C1609.77 982.473 1609.29 972.758 1600.37 965.521C1595.86 961.854 1590.23 959.861 1584.43 959.879C1582.04 959.879 1579.64 960.009 1578.2 960.437C1577.4 960.735 1576.93 961.604 1576.93 963.2V1021.14C1576.93 1034.47 1576.93 1045.92 1577.73 1052.15C1578.19 1056.21 1579.15 1059.4 1583.95 1059.97C1586.18 1060.25 1589.67 1060.55 1592.08 1060.55C1593.83 1060.55 1594.61 1060.98 1594.61 1061.72C1594.61 1062.73 1593.34 1063.16 1591.57 1063.16C1581.08 1063.16 1571.03 1062.73 1566.9 1062.73C1563.23 1062.73 1553.19 1063.16 1546.81 1063.16C1544.74 1063.16 1543.65 1062.73 1543.65 1061.72C1543.65 1060.98 1544.28 1060.55 1546.18 1060.55C1548.59 1060.55 1550.48 1060.27 1551.92 1059.97C1555.11 1059.4 1555.91 1056.21 1556.53 1052.02C1557.33 1045.92 1557.33 1034.48 1557.33 1021.15V995.663ZM1743.9 1057.96C1713.31 1057.96 1694.99 1034.05 1694.99 1003.91C1694.99 967.843 1715.86 958.569 1734.17 958.569C1760.32 958.569 1780.87 978.711 1780.87 1011.16C1780.87 1053.03 1755.04 1057.96 1743.9 1057.96ZM1737.18 1065.19C1777.66 1065.19 1803.17 1038.98 1803.17 1005.79C1803.17 972.629 1778.48 951.618 1738.78 951.618C1690.97 951.618 1673 983.627 1673 1008.4C1673 1034.05 1691.47 1065.19 1737.18 1065.19ZM1883.99 963.057C1883.99 961.916 1884.29 961.332 1885.4 961.034C1887.02 960.606 1889.89 960.45 1893.83 960.45C1903.26 960.45 1918.23 966.403 1918.23 986.973C1918.23 998.853 1913.6 1005.51 1908.83 1008.68C1905.93 1010.58 1903.88 1011.15 1897.5 1011.15C1893.52 1011.15 1888.74 1010.71 1885.39 1009.7C1884.27 1009.27 1883.98 1008.68 1883.98 1007.09L1883.99 963.057ZM1865.17 1021.15C1865.17 1034.48 1865.17 1045.93 1864.38 1052.02C1863.72 1056.22 1862.94 1059.4 1859.75 1059.97C1857.87 1060.35 1855.95 1060.55 1854.03 1060.55C1852.11 1060.55 1851.47 1060.98 1851.47 1061.72C1851.47 1062.73 1852.59 1063.16 1854.66 1063.16C1861.04 1063.16 1871.08 1062.73 1874.12 1062.73C1876.5 1062.73 1888.31 1063.16 1897.53 1063.16C1899.6 1063.16 1900.72 1062.73 1900.72 1061.72C1900.72 1060.98 1900.08 1060.55 1898.8 1060.55C1896.91 1060.55 1893.4 1060.27 1890.99 1059.97C1886.23 1059.4 1885.27 1056.21 1884.78 1052.02C1883.99 1045.92 1883.99 1034.48 1883.99 1021.01V1018.96C1883.99 1018.1 1884.47 1017.82 1885.26 1017.82L1899.11 1018.1C1900.23 1018.1 1901.19 1018.26 1902 1019.11C1904.08 1021.29 1911.38 1031.14 1917.76 1039.1C1926.68 1050.24 1932.73 1057.07 1939.6 1060.4C1943.75 1062.43 1947.73 1063.16 1956.64 1063.16H1971.79C1973.69 1063.16 1974.8 1062.87 1974.8 1061.72C1974.8 1060.98 1974.17 1060.55 1972.91 1060.55C1971.65 1060.55 1970.2 1060.39 1968.45 1060.12C1966.06 1059.69 1959.52 1058.67 1950.59 1050.25C1941.18 1041.29 1930.2 1028.4 1916.01 1012.16C1932.09 1000.28 1937.03 990.423 1937.03 979.71C1937.03 970.022 1930.65 962.629 1926.19 959.879C1917.61 954.51 1906.94 953.641 1896.88 953.641C1891.96 953.641 1879.84 954.082 1874.42 954.082C1871.07 954.082 1861.04 953.641 1852.58 953.641C1850.16 953.641 1849.07 953.926 1849.07 954.964C1849.07 955.975 1850.03 956.274 1851.76 956.274C1853.84 956.238 1855.92 956.381 1857.98 956.702C1863.22 957.713 1864.52 960.022 1864.82 964.951C1865.14 969.581 1865.14 973.653 1865.14 995.663V1021.15H1865.17ZM2014.17 995.663C2014.17 973.653 2014.17 969.581 2013.84 964.951C2013.52 960.035 2012.25 957.713 2007.01 956.702C2004.95 956.383 2002.86 956.24 2000.78 956.274C1999.03 956.274 1998.1 955.988 1998.1 954.964C1998.1 953.939 1999.19 953.641 2001.6 953.641C2010.03 953.641 2020.09 954.082 2024.53 954.082C2029.63 954.082 2061.36 954.082 2064.37 953.926C2067.41 953.641 2069.95 953.343 2071.23 953.07C2072.02 952.915 2072.98 952.487 2073.76 952.487C2074.57 952.487 2074.75 953.07 2074.75 953.797C2074.75 954.808 2073.94 956.546 2073.45 963.213C2073.29 964.652 2072.97 971.033 2072.66 972.771C2072.48 973.498 2072.18 974.367 2071.06 974.367C2069.92 974.367 2069.62 973.64 2069.62 972.343C2069.62 971.306 2069.47 968.854 2068.66 967.116C2067.55 964.51 2065.95 962.759 2058 961.903C2055.27 961.617 2038.55 961.332 2035.36 961.332C2034.57 961.332 2034.24 961.76 2034.24 962.759V999.424C2034.24 1000.44 2034.4 1001.02 2035.36 1001.02C2038.86 1001.02 2057.2 1001.02 2060.87 1000.73C2064.67 1000.45 2067.08 999.995 2068.52 998.555C2069.64 997.414 2070.27 996.675 2071.08 996.675C2071.71 996.675 2072.19 996.96 2072.19 997.842C2072.19 998.698 2071.39 1001.03 2070.9 1008.4C2070.6 1011.3 2070.26 1017.1 2070.26 1018.11C2070.26 1019.27 2070.26 1020.86 2068.82 1020.86C2067.7 1020.86 2067.41 1020.29 2067.41 1019.55C2067.22 1018.11 2067.23 1016.23 2066.75 1014.34C2065.95 1011.46 2063.74 1009.28 2057.82 1008.68C2054.81 1008.4 2039.03 1008.26 2035.2 1008.26C2034.4 1008.26 2034.24 1008.81 2034.24 1009.7V1021.14C2034.24 1026.06 2034.09 1039.4 2034.24 1043.6C2034.57 1053.6 2037.14 1055.76 2053.37 1055.76C2057.52 1055.76 2064.22 1055.76 2068.34 1054.04C2072.49 1052.3 2074.42 1049.25 2075.54 1043.31C2075.84 1041.72 2076.17 1041.15 2077.29 1041.15C2078.56 1041.15 2078.56 1042.32 2078.56 1043.77C2078.29 1049.17 2077.6 1054.55 2076.49 1059.85C2075.37 1063.61 2073.96 1063.61 2067.9 1063.61C2043.81 1063.61 2033.14 1062.76 2023.75 1062.76C2020.11 1062.76 2010.04 1063.18 2003.69 1063.18C2001.61 1063.18 2000.5 1062.76 2000.5 1061.74C2000.5 1061 2001.13 1060.58 2003.05 1060.58C2005.44 1060.58 2007.33 1060.29 2008.77 1059.99C2011.93 1059.42 2012.75 1056.23 2013.37 1052.04C2014.18 1045.95 2014.18 1034.51 2014.18 1021.17V995.663H2014.17ZM852.218 1180.59C852.697 1178.11 853.657 1176.8 854.928 1176.8C856.212 1176.8 857.159 1177.52 859.234 1181.3L902.735 1263.02L946.067 1180.3C947.182 1177.98 948.142 1176.81 949.582 1176.81C951.021 1176.81 951.968 1178.28 952.448 1181.31L966.948 1270.86C968.388 1279.97 969.983 1284.18 974.782 1285.49C979.386 1286.8 982.59 1286.91 984.639 1286.91C986.079 1286.91 987.194 1287.08 987.194 1287.94C987.194 1289.1 985.3 1289.52 983.044 1289.52C972.257 1289.42 961.474 1289.14 950.697 1288.68C947.027 1288.39 946.067 1287.94 946.067 1287.08C946.067 1286.34 946.715 1285.91 947.831 1285.49C948.778 1285.2 949.257 1283.31 948.622 1279.25L939.076 1215.51H938.441L903.695 1281.28C900.024 1288.09 899.207 1289.4 897.793 1289.4C896.354 1289.4 894.771 1286.5 892.216 1282.15C888.39 1275.47 875.797 1253.31 873.864 1249.26C872.45 1246.23 862.892 1227.95 857.315 1217.11H856.653L848.379 1274.76C848.063 1277.02 847.899 1279.29 847.886 1281.57C847.886 1284.32 849.961 1285.61 852.671 1286.2C855.538 1286.78 857.769 1286.91 859.377 1286.91C860.648 1286.91 861.776 1287.21 861.776 1287.94C861.776 1289.26 860.337 1289.52 857.95 1289.52C851.245 1289.52 844.073 1289.1 841.193 1289.1C838.184 1289.1 830.519 1289.52 825.435 1289.52C823.84 1289.52 822.569 1289.25 822.569 1287.94C822.569 1287.21 823.502 1286.91 825.098 1286.91C826.382 1286.91 827.484 1286.91 829.884 1286.5C834.345 1285.63 835.603 1279.97 836.42 1275.04L852.218 1180.59ZM1052.34 1244.47C1051.71 1244.47 1051.54 1244.05 1051.71 1243.45L1066.35 1207.8C1066.52 1207.23 1066.83 1206.5 1067.31 1206.5C1067.78 1206.5 1067.94 1207.23 1068.1 1207.8L1082.44 1243.58C1082.61 1244.03 1082.44 1244.46 1081.65 1244.46H1052.34V1244.47ZM1084.67 1251.71C1085.48 1251.71 1085.96 1252 1086.27 1252.72L1099.01 1283.45C1099.81 1285.19 1098.71 1286.48 1097.59 1286.78C1096 1286.91 1095.35 1287.21 1095.35 1288.09C1095.35 1289.1 1097.26 1289.1 1100.12 1289.26C1112.87 1289.53 1124.52 1289.53 1130.25 1289.53C1136.15 1289.53 1137.57 1289.26 1137.57 1288.11C1137.57 1287.09 1136.77 1286.92 1135.49 1286.92C1133.6 1286.92 1131.2 1286.8 1128.81 1286.35C1125.45 1285.63 1120.83 1283.6 1114.78 1270.56C1104.57 1248.53 1079.08 1189.43 1075.25 1181.47C1073.68 1178.12 1072.72 1176.81 1071.26 1176.81C1069.67 1176.81 1068.73 1178.41 1066.8 1182.61L1026.82 1273.59C1023.63 1280.86 1020.59 1285.77 1013.26 1286.65C1011.99 1286.8 1009.76 1286.92 1008.32 1286.92C1007.05 1286.92 1006.4 1287.22 1006.4 1288.11C1006.4 1289.27 1007.36 1289.53 1009.44 1289.53C1017.72 1289.53 1026.49 1289.12 1028.24 1289.12C1033.18 1289.12 1040.03 1289.53 1045.14 1289.53C1046.89 1289.53 1047.85 1289.26 1047.85 1288.11C1047.85 1287.24 1047.37 1286.92 1045.44 1286.92H1043.05C1038.11 1286.92 1036.69 1285.04 1036.69 1282.44C1036.69 1280.7 1037.48 1277.24 1039.07 1273.59L1047.7 1252.88C1048.02 1252.01 1048.35 1251.71 1049.14 1251.71H1084.67ZM1191.92 1269.83C1192.25 1281.11 1194.33 1284.89 1197.51 1285.9C1200.21 1286.77 1203.24 1286.9 1205.8 1286.9C1207.55 1286.9 1208.51 1287.2 1208.51 1288.08C1208.51 1289.25 1207.07 1289.51 1204.84 1289.51C1194.48 1289.51 1188.11 1289.09 1185.09 1289.09C1183.66 1289.09 1176.16 1289.51 1167.88 1289.51C1165.8 1289.51 1164.36 1289.38 1164.36 1288.08C1164.36 1287.21 1165.32 1286.9 1166.92 1286.9C1168.99 1286.9 1171.86 1286.77 1174.09 1286.19C1178.24 1285.02 1178.87 1280.83 1179.03 1268.21L1180.47 1182.44C1180.47 1179.56 1180.94 1177.51 1182.53 1177.51C1184.3 1177.51 1185.72 1179.41 1188.43 1182.01C1190.35 1183.91 1214.57 1207.52 1237.82 1228.52C1248.66 1238.38 1270.19 1259.25 1272.9 1261.54H1273.7L1272.13 1196.51C1271.95 1187.68 1270.53 1184.92 1266.68 1183.48C1264.29 1182.61 1260.47 1182.61 1258.25 1182.61C1256.34 1182.61 1255.69 1182.18 1255.69 1181.3C1255.69 1180.16 1257.46 1179.99 1259.84 1179.99C1268.13 1179.99 1275.78 1180.44 1279.12 1180.44C1280.89 1180.44 1286.95 1179.99 1294.75 1179.99C1296.82 1179.99 1298.39 1180.14 1298.39 1181.3C1298.39 1182.18 1297.46 1182.61 1295.52 1182.61C1293.93 1182.61 1292.66 1182.61 1290.76 1183.06C1286.28 1184.2 1285.02 1187.25 1284.86 1195.36L1283.11 1286.78C1283.11 1289.95 1282.48 1291.28 1281.04 1291.28C1279.26 1291.28 1277.37 1289.69 1275.62 1288.09C1265.56 1279.39 1245.16 1260.41 1228.6 1245.5C1211.23 1229.84 1193.53 1211.73 1190.66 1208.99H1190.18L1191.92 1269.83ZM1372.14 1244.47C1371.5 1244.47 1371.33 1244.05 1371.5 1243.45L1386.17 1207.8C1386.33 1207.23 1386.62 1206.5 1387.1 1206.5C1387.58 1206.5 1387.77 1207.23 1387.91 1207.8L1402.23 1243.58C1402.41 1244.03 1402.23 1244.46 1401.44 1244.46H1372.14V1244.47ZM1404.48 1251.71C1405.27 1251.71 1405.75 1252 1406.08 1252.72L1418.81 1283.45C1418.98 1283.76 1419.08 1284.1 1419.09 1284.45C1419.11 1284.8 1419.04 1285.14 1418.91 1285.47C1418.77 1285.79 1418.56 1286.07 1418.29 1286.3C1418.03 1286.53 1417.71 1286.69 1417.38 1286.78C1415.81 1286.91 1415.14 1287.21 1415.14 1288.09C1415.14 1289.1 1417.04 1289.1 1419.93 1289.26C1432.67 1289.53 1444.3 1289.53 1450.05 1289.53C1455.95 1289.53 1457.39 1289.26 1457.39 1288.11C1457.39 1287.09 1456.58 1286.92 1455.31 1286.92C1453.39 1286.92 1451.01 1286.8 1448.62 1286.35C1445.25 1285.63 1440.62 1283.6 1434.59 1270.56C1424.38 1248.53 1398.87 1189.43 1395.04 1181.47C1393.47 1178.12 1392.51 1176.81 1391.09 1176.81C1389.49 1176.81 1388.53 1178.41 1386.6 1182.61L1346.6 1273.59C1343.43 1280.86 1340.39 1285.77 1333.05 1286.65C1331.77 1286.8 1329.54 1286.92 1328.1 1286.92C1326.83 1286.92 1326.21 1287.22 1326.21 1288.11C1326.21 1289.27 1327.17 1289.53 1329.25 1289.53C1337.51 1289.53 1346.29 1289.12 1348.01 1289.12C1352.95 1289.12 1359.82 1289.53 1364.94 1289.53C1366.69 1289.53 1367.65 1289.26 1367.65 1288.11C1367.65 1287.24 1367.17 1286.92 1365.24 1286.92H1362.85C1357.91 1286.92 1356.47 1285.04 1356.47 1282.44C1356.47 1280.7 1357.27 1277.24 1358.88 1273.59L1367.49 1252.88C1367.79 1252.01 1368.1 1251.71 1368.91 1251.71H1404.48ZM1599.54 1279.83C1599.54 1283.73 1599.35 1284.02 1597.46 1285.03C1587.1 1289.95 1571.47 1291.57 1559.06 1291.57C1520.02 1291.57 1485.41 1274.75 1485.41 1234.76C1485.3 1225.09 1487.82 1215.57 1492.71 1207.22C1497.59 1198.88 1504.66 1192.02 1513.16 1187.39C1528.46 1178.99 1542.64 1177.98 1556.02 1177.98C1567.02 1177.98 1581.05 1179.73 1584.24 1180.3C1587.59 1180.87 1593.17 1181.75 1596.84 1181.9C1598.73 1182.04 1599.07 1182.62 1599.07 1183.65C1599.07 1185.23 1597.95 1189.29 1597.95 1207.39C1597.95 1209.72 1597.47 1210.43 1596.2 1210.43C1595.09 1210.43 1594.76 1209.7 1594.61 1208.55C1594.13 1205.2 1593.34 1200.57 1589.19 1196.53C1584.4 1191.9 1571.62 1185.22 1553.65 1185.22C1544.88 1185.22 1533.26 1185.8 1522.11 1194.2C1513.17 1201.01 1507.44 1211.87 1507.44 1229.7C1507.44 1260.86 1529.25 1284.18 1562.88 1284.18C1567.01 1284.18 1572.58 1284.18 1576.41 1282.58C1578.82 1281.57 1579.45 1279.67 1579.45 1277.22V1263.61C1579.45 1256.36 1579.45 1250.84 1579.26 1246.5C1579.13 1241.58 1577.69 1239.26 1572.43 1238.24C1570.37 1237.92 1568.29 1237.78 1566.2 1237.81C1564.79 1237.81 1563.82 1237.52 1563.82 1236.67C1563.82 1235.51 1564.93 1235.21 1567.19 1235.21C1575.48 1235.21 1585.5 1235.66 1590.29 1235.66C1595.23 1235.66 1603.66 1235.21 1608.94 1235.21C1611.01 1235.21 1612.13 1235.51 1612.13 1236.67C1612.13 1237.52 1611.17 1237.81 1610.05 1237.81C1608.76 1237.81 1607.67 1237.96 1605.75 1238.24C1601.44 1238.98 1599.85 1241.45 1599.69 1246.5C1599.54 1250.84 1599.54 1256.64 1599.54 1263.9V1279.83ZM1672.67 1222.01C1672.67 1200 1672.67 1195.93 1672.37 1191.29C1672.05 1186.38 1670.78 1184.06 1665.51 1183.05C1663.46 1182.71 1661.38 1182.56 1659.3 1182.6C1657.55 1182.6 1656.59 1182.31 1656.59 1181.29C1656.59 1180.27 1657.7 1179.98 1660.09 1179.98C1668.55 1179.98 1678.59 1180.43 1683.05 1180.43C1688.14 1180.43 1719.86 1180.43 1722.89 1180.27C1725.9 1179.98 1728.47 1179.72 1729.73 1179.39C1730.53 1179.26 1731.48 1178.83 1732.28 1178.83C1733.07 1178.83 1733.24 1179.39 1733.24 1180.14C1733.24 1181.16 1732.44 1182.88 1731.94 1189.55C1731.79 1191.01 1731.46 1197.39 1731.15 1199.13C1731 1199.86 1730.67 1200.73 1729.56 1200.73C1728.44 1200.73 1728.12 1200 1728.12 1198.69C1728.12 1197.67 1727.96 1195.2 1727.18 1193.48C1726.07 1190.84 1724.47 1189.12 1716.5 1188.25C1713.79 1187.98 1697.07 1187.68 1693.88 1187.68C1693.09 1187.68 1692.76 1188.11 1692.76 1189.12V1225.79C1692.76 1226.8 1692.92 1227.37 1693.88 1227.37C1697.38 1227.37 1715.72 1227.37 1719.36 1227.1C1723.19 1226.81 1725.59 1226.36 1727.02 1224.92C1728.13 1223.75 1728.77 1223.02 1729.57 1223.02C1730.21 1223.02 1730.69 1223.31 1730.69 1224.16C1730.69 1225.03 1729.88 1227.35 1729.41 1234.75C1729.09 1237.65 1728.75 1243.44 1728.75 1244.46C1728.75 1245.62 1728.75 1247.21 1727.34 1247.21C1726.22 1247.21 1725.9 1246.64 1725.9 1245.89C1725.74 1244.46 1725.74 1242.57 1725.26 1240.67C1724.47 1237.77 1722.26 1235.62 1716.34 1235.03C1713.31 1234.75 1697.55 1234.6 1693.72 1234.6C1692.92 1234.6 1692.76 1235.18 1692.76 1236.04V1247.51C1692.76 1252.43 1692.61 1265.76 1692.76 1269.93C1693.09 1279.93 1695.63 1282.11 1711.87 1282.11C1716.02 1282.11 1722.74 1282.11 1726.86 1280.38C1731.01 1278.62 1732.92 1275.59 1734.03 1269.66C1734.36 1268.07 1734.69 1267.47 1735.81 1267.47C1737.08 1267.47 1737.08 1268.64 1737.08 1270.09C1737.08 1273.42 1735.81 1283.27 1735 1286.16C1733.89 1289.91 1732.45 1289.91 1726.39 1289.91C1702.33 1289.91 1691.66 1289.06 1682.27 1289.06C1678.6 1289.06 1668.56 1289.48 1662.18 1289.48C1660.1 1289.48 1658.99 1289.06 1658.99 1288.05C1658.99 1287.33 1659.65 1286.87 1661.54 1286.87C1663.93 1286.87 1665.85 1286.6 1667.29 1286.3C1670.45 1285.73 1671.27 1282.54 1671.89 1278.34C1672.68 1272.24 1672.68 1260.82 1672.68 1247.5V1222.01H1672.67ZM1807.93 1180.59C1808.41 1178.11 1809.37 1176.8 1810.67 1176.8C1811.92 1176.8 1812.9 1177.52 1814.95 1181.3L1858.46 1263.02L1901.81 1180.3C1902.9 1177.98 1903.86 1176.81 1905.31 1176.81C1906.76 1176.81 1907.7 1178.28 1908.18 1181.31L1922.69 1270.86C1924.13 1279.97 1925.7 1284.18 1930.5 1285.49C1935.13 1286.8 1938.31 1286.91 1940.38 1286.91C1941.82 1286.91 1942.94 1287.08 1942.94 1287.94C1942.94 1289.1 1941.02 1289.52 1938.81 1289.52C1934.8 1289.52 1912.82 1289.1 1906.44 1288.68C1902.77 1288.39 1901.83 1287.94 1901.83 1287.08C1901.83 1286.34 1902.47 1285.91 1903.59 1285.49C1904.55 1285.2 1905 1283.31 1904.38 1279.25L1894.83 1215.51H1894.17L1859.44 1281.28C1855.79 1288.09 1854.97 1289.4 1853.56 1289.4C1852.12 1289.4 1850.53 1286.5 1847.96 1282.15C1844.13 1275.47 1831.54 1253.31 1829.64 1249.26C1828.21 1246.23 1818.65 1227.95 1813.06 1217.11H1812.42L1804.13 1274.76C1803.84 1277.02 1803.69 1279.29 1803.68 1281.57C1803.68 1284.32 1805.73 1285.61 1808.44 1286.2C1811.31 1286.78 1813.56 1286.91 1815.13 1286.91C1816.43 1286.91 1817.52 1287.21 1817.52 1287.94C1817.52 1289.26 1816.08 1289.52 1813.72 1289.52C1807.03 1289.52 1799.87 1289.1 1796.97 1289.1C1793.97 1289.1 1786.31 1289.52 1781.19 1289.52C1779.59 1289.52 1778.32 1289.25 1778.32 1287.94C1778.32 1287.21 1779.28 1286.91 1780.88 1286.91C1782.15 1286.91 1783.27 1286.91 1785.66 1286.5C1790.13 1285.63 1791.38 1279.97 1792.2 1275.04L1807.93 1180.59ZM1996.94 1222.01C1996.94 1200 1996.94 1195.93 1996.64 1191.29C1996.32 1186.38 1995.05 1184.06 1989.78 1183.05C1987.73 1182.71 1985.65 1182.56 1983.57 1182.6C1981.79 1182.6 1980.86 1182.31 1980.86 1181.29C1980.86 1180.27 1981.97 1179.98 1984.36 1179.98C1992.79 1179.98 2002.86 1180.43 2007.32 1180.43C2012.44 1180.43 2044.13 1180.43 2047.16 1180.27C2050.17 1179.98 2052.74 1179.72 2054 1179.39C2054.8 1179.26 2055.75 1178.83 2056.55 1178.83C2057.34 1178.83 2057.51 1179.39 2057.51 1180.14C2057.51 1181.16 2056.71 1182.88 2056.21 1189.55C2056.06 1191.01 2055.73 1197.39 2055.42 1199.13C2055.24 1199.86 2054.94 1200.73 2053.83 1200.73C2052.71 1200.73 2052.39 1200 2052.39 1198.69C2052.39 1197.67 2052.23 1195.2 2051.43 1193.48C2050.31 1190.84 2048.72 1189.12 2040.77 1188.25C2038.06 1187.98 2021.34 1187.68 2018.15 1187.68C2017.34 1187.68 2017.03 1188.11 2017.03 1189.12V1225.79C2017.03 1226.8 2017.21 1227.37 2018.15 1227.37C2021.65 1227.37 2039.99 1227.37 2043.63 1227.1C2047.46 1226.81 2049.86 1226.36 2051.29 1224.92C2052.4 1223.75 2053.06 1223.02 2053.84 1223.02C2054.48 1223.02 2054.96 1223.31 2054.96 1224.16C2054.96 1225.03 2054.16 1227.35 2053.68 1234.75C2053.36 1237.65 2053.05 1243.44 2053.05 1244.46C2053.05 1245.62 2053.05 1247.21 2051.61 1247.21C2050.49 1247.21 2050.17 1246.64 2050.17 1245.89C2050.01 1244.46 2050.01 1242.57 2049.53 1240.67C2048.73 1237.77 2046.5 1235.62 2040.61 1235.03C2037.58 1234.75 2021.82 1234.6 2017.99 1234.6C2017.2 1234.6 2017.03 1235.18 2017.03 1236.04V1247.51C2017.03 1252.43 2016.88 1265.76 2017.03 1269.93C2017.33 1279.93 2019.92 1282.11 2036.16 1282.11C2040.29 1282.11 2047.01 1282.11 2051.13 1280.38C2055.25 1278.62 2057.19 1275.59 2058.3 1269.66C2058.63 1268.07 2058.96 1267.47 2060.05 1267.47C2061.35 1267.47 2061.35 1268.64 2061.35 1270.09C2061.35 1273.42 2060.05 1283.27 2059.27 1286.16C2058.16 1289.91 2056.72 1289.91 2050.66 1289.91C2026.6 1289.91 2015.93 1289.06 2006.54 1289.06C2002.87 1289.06 1992.8 1289.48 1986.45 1289.48C1984.37 1289.48 1983.26 1289.06 1983.26 1288.05C1983.26 1287.33 1983.89 1286.87 1985.81 1286.87C1988.23 1286.87 1990.12 1286.6 1991.53 1286.3C1994.72 1285.73 1995.54 1282.54 1996.16 1278.34C1996.95 1272.24 1996.95 1260.82 1996.95 1247.5V1222.01H1996.94ZM2135.25 1269.83C2135.58 1281.11 2137.66 1284.89 2140.83 1285.9C2143.54 1286.77 2146.57 1286.9 2149.12 1286.9C2150.87 1286.9 2151.83 1287.2 2151.83 1288.08C2151.83 1289.25 2150.41 1289.51 2148.18 1289.51C2137.82 1289.51 2131.44 1289.09 2128.43 1289.09C2126.99 1289.09 2119.49 1289.51 2111.21 1289.51C2109.13 1289.51 2107.69 1289.38 2107.69 1288.08C2107.69 1287.21 2108.65 1286.9 2110.25 1286.9C2112.32 1286.9 2115.19 1286.77 2117.44 1286.19C2121.57 1285.02 2122.2 1280.83 2122.36 1268.21L2123.8 1182.44C2123.8 1179.56 2124.28 1177.51 2125.87 1177.51C2127.63 1177.51 2129.06 1179.41 2131.78 1182.01C2133.67 1183.91 2157.9 1207.52 2181.15 1228.52C2192.02 1238.38 2213.52 1259.25 2216.21 1261.54H2217.01L2215.42 1196.51C2215.26 1187.68 2213.82 1184.92 2210 1183.48C2207.61 1182.61 2203.78 1182.61 2201.57 1182.61C2199.65 1182.61 2199.01 1182.18 2199.01 1181.3C2199.01 1180.16 2200.79 1179.99 2203.16 1179.99C2211.45 1179.99 2219.1 1180.44 2222.43 1180.44C2224.19 1180.44 2230.24 1179.99 2238.04 1179.99C2240.11 1179.99 2241.71 1180.14 2241.71 1181.3C2241.71 1182.18 2240.75 1182.61 2238.81 1182.61C2237.25 1182.61 2235.95 1182.61 2234.06 1183.06C2229.59 1184.2 2228.34 1187.25 2228.15 1195.36L2226.4 1286.78C2226.4 1289.95 2225.77 1291.28 2224.35 1291.28C2222.58 1291.28 2220.68 1289.69 2218.91 1288.09C2208.88 1279.39 2188.48 1260.41 2171.89 1245.5C2154.54 1229.84 2136.86 1211.73 2133.99 1208.99H2133.51L2135.25 1269.83ZM2327.09 1188.11L2303.35 1188.69C2294.11 1188.98 2290.28 1189.7 2287.88 1192.89C2286.68 1194.4 2285.76 1196.12 2285.17 1197.95C2284.87 1199.12 2284.38 1199.68 2283.42 1199.68C2282.3 1199.68 2281.98 1198.96 2281.98 1197.38C2281.98 1195.05 2285.01 1181.87 2285.35 1180.7C2285.8 1178.83 2286.28 1177.97 2287.24 1177.97C2288.54 1177.97 2290.14 1179.41 2294.11 1179.72C2298.71 1180.14 2304.77 1180.43 2310.04 1180.43H2373.14C2378.24 1180.43 2381.75 1179.98 2384.14 1179.72C2386.55 1179.26 2387.81 1178.98 2388.45 1178.98C2389.56 1178.98 2389.72 1179.85 2389.72 1182.01C2389.72 1185.06 2389.26 1195.06 2389.26 1198.83C2389.08 1200.27 2388.78 1201.14 2387.82 1201.14C2386.55 1201.14 2386.23 1200.42 2386.07 1198.25L2385.89 1196.66C2385.59 1192.89 2381.29 1188.82 2367.1 1188.55L2347.01 1188.11V1247.52C2347.01 1260.84 2347.01 1272.27 2347.8 1278.52C2348.28 1282.57 2349.24 1285.77 2354.03 1286.34C2356.26 1286.64 2359.75 1286.91 2362.16 1286.91C2363.91 1286.91 2364.71 1287.37 2364.71 1288.09C2364.71 1289.1 2363.42 1289.52 2361.68 1289.52C2351.15 1289.52 2341.11 1289.1 2336.65 1289.1C2333 1289.1 2322.94 1289.52 2316.58 1289.52C2314.51 1289.52 2313.39 1289.1 2313.39 1288.09C2313.39 1287.37 2314.03 1286.91 2315.95 1286.91C2318.33 1286.91 2320.23 1286.64 2321.67 1286.34C2324.86 1285.77 2325.79 1282.58 2326.27 1278.38C2327.07 1272.28 2327.07 1260.86 2327.07 1247.54L2327.09 1188.11ZM839.468 1457.43C839.468 1435.43 839.468 1431.34 839.17 1426.73C838.846 1421.8 837.575 1419.48 832.296 1418.46C830.242 1418.14 828.163 1417.99 826.083 1418.02C824.333 1418.02 823.373 1417.74 823.373 1416.71C823.373 1415.69 824.488 1415.4 826.875 1415.4C835.331 1415.4 845.37 1415.84 850.155 1415.84C853.956 1415.84 864.007 1415.4 869.753 1415.4C872.139 1415.4 873.255 1415.69 873.255 1416.71C873.255 1417.74 872.308 1418.02 870.712 1418.02C868.962 1418.02 868.002 1418.18 866.095 1418.46C861.789 1419.19 860.505 1421.64 860.194 1426.73C859.87 1431.34 859.87 1435.43 859.87 1457.43V1477.7C859.87 1498.72 864.487 1507.55 872.308 1513.35C879.48 1518.71 886.808 1519.27 892.229 1519.27C899.22 1519.27 907.832 1517.24 914.213 1511.46C922.981 1503.48 923.447 1490.45 923.447 1475.52V1457.41C923.447 1435.42 923.448 1431.33 923.136 1426.71C922.812 1421.78 921.541 1419.46 916.288 1418.45C915.004 1418.17 912.294 1418.01 910.543 1418.01C908.792 1418.01 907.832 1417.73 907.832 1416.7C907.832 1415.68 908.947 1415.39 911.178 1415.39C919.297 1415.39 929.349 1415.83 929.517 1415.83C931.424 1415.83 941.463 1415.39 947.675 1415.39C949.906 1415.39 951.034 1415.68 951.034 1416.7C951.034 1417.73 950.075 1418.01 948.155 1418.01C946.404 1418.01 945.444 1418.17 943.538 1418.45C939.232 1419.18 937.961 1421.63 937.636 1426.71C937.338 1431.33 937.338 1435.42 937.338 1457.41V1472.92C937.338 1488.99 935.587 1506.09 922.189 1516.52C910.88 1525.35 899.402 1526.94 889.039 1526.94C880.595 1526.94 865.291 1526.52 853.657 1516.96C845.525 1510.28 839.468 1499.56 839.468 1478.57V1457.43ZM1019.67 1505.23C1019.99 1516.54 1022.07 1520.32 1025.25 1521.31C1027.96 1522.18 1030.99 1522.33 1033.53 1522.33C1035.29 1522.33 1036.26 1522.61 1036.26 1523.51C1036.26 1524.65 1034.82 1524.95 1032.59 1524.95C1022.24 1524.95 1015.84 1524.49 1012.84 1524.49C1011.4 1524.49 1003.91 1524.95 995.624 1524.95C993.549 1524.95 992.11 1524.79 992.11 1523.51C992.11 1522.62 993.069 1522.33 994.652 1522.33C996.714 1522.33 999.593 1522.18 1001.84 1521.61C1005.96 1520.43 1006.61 1516.23 1006.78 1503.65L1008.22 1417.88C1008.22 1414.98 1008.68 1412.94 1010.28 1412.94C1012.03 1412.94 1013.47 1414.83 1016.18 1417.44C1018.09 1419.33 1042.32 1442.95 1065.58 1463.95C1076.41 1473.79 1097.93 1494.66 1100.64 1496.97H1101.44L1099.86 1431.94C1099.69 1423.09 1098.27 1420.34 1094.44 1418.89C1092.04 1418.02 1088.23 1418.02 1085.98 1418.02C1084.08 1418.02 1083.44 1417.6 1083.44 1416.71C1083.44 1415.56 1085.19 1415.4 1087.57 1415.4C1095.85 1415.4 1103.51 1415.84 1106.85 1415.84C1108.59 1415.84 1114.67 1415.4 1122.48 1415.4C1124.53 1415.4 1126.13 1415.56 1126.13 1416.71C1126.13 1417.58 1125.19 1418.02 1123.26 1418.02C1121.66 1418.02 1120.39 1418.02 1118.47 1418.46C1114.01 1419.62 1112.74 1422.65 1112.59 1430.76L1110.82 1522.18C1110.82 1525.36 1110.21 1526.7 1108.76 1526.7C1107 1526.7 1105.09 1525.08 1103.34 1523.51C1093.3 1514.8 1072.9 1495.83 1056.32 1480.9C1038.94 1465.26 1021.25 1447.14 1018.4 1444.4H1017.92L1019.67 1505.23ZM1190.3 1457.43C1190.3 1435.43 1190.3 1431.34 1190 1426.73C1189.68 1421.8 1188.1 1419.33 1184.58 1418.61C1182.7 1418.19 1180.78 1418 1178.86 1418.02C1177.27 1418.02 1176.31 1417.74 1176.31 1416.58C1176.31 1415.71 1177.59 1415.42 1180.13 1415.42C1186.19 1415.42 1196.23 1415.86 1200.86 1415.86C1204.84 1415.86 1214.24 1415.42 1220.3 1415.42C1222.37 1415.42 1223.65 1415.7 1223.65 1416.58C1223.65 1417.74 1222.69 1418.02 1221.09 1418.02C1219.5 1418.02 1218.22 1418.18 1216.32 1418.46C1212.01 1419.19 1210.74 1421.64 1210.42 1426.73C1210.09 1431.34 1210.09 1435.43 1210.09 1457.43V1482.92C1210.09 1496.97 1210.09 1508.42 1210.74 1514.66C1211.22 1518.55 1212.32 1521.17 1217.11 1521.74C1219.34 1522.03 1222.83 1522.33 1225.24 1522.33C1226.99 1522.33 1227.8 1522.78 1227.8 1523.51C1227.8 1524.49 1226.5 1524.95 1224.76 1524.95C1214.24 1524.95 1204.2 1524.49 1199.9 1524.49C1196.23 1524.49 1186.19 1524.95 1179.81 1524.95C1177.75 1524.95 1176.63 1524.49 1176.63 1523.51C1176.63 1522.78 1177.27 1522.33 1179.19 1522.33C1181.57 1522.33 1183.48 1522.04 1184.92 1521.74C1188.11 1521.17 1189.04 1518.72 1189.54 1514.51C1190.33 1508.41 1190.33 1496.96 1190.33 1482.91V1457.43H1190.3ZM1276.35 1429.63C1272.68 1421.65 1269.97 1420.06 1264.24 1418.61C1261.83 1418.02 1259.3 1418.02 1258.03 1418.02C1256.59 1418.02 1256.11 1417.6 1256.11 1416.71C1256.11 1415.56 1257.87 1415.4 1260.27 1415.4C1268.7 1415.4 1277.78 1415.84 1283.35 1415.84C1287.35 1415.84 1294.99 1415.4 1302.98 1415.4C1304.88 1415.4 1306.63 1415.69 1306.63 1416.71C1306.63 1417.74 1305.67 1418.02 1304.24 1418.02C1301.68 1418.02 1299.3 1418.18 1298.03 1419.05C1297.51 1419.36 1297.1 1419.81 1296.82 1420.35C1296.53 1420.88 1296.4 1421.48 1296.43 1422.08C1296.43 1423.95 1297.85 1428.02 1300.1 1433.24L1327.51 1498.99H1328.12C1334.98 1483.05 1355.68 1436.4 1359.53 1426.86C1360.3 1425.16 1360.78 1423.35 1360.94 1421.5C1360.96 1420.88 1360.76 1420.27 1360.39 1419.77C1360.02 1419.27 1359.49 1418.91 1358.89 1418.74C1356.81 1418.21 1354.66 1417.96 1352.51 1418.01C1351.07 1418.01 1349.8 1417.87 1349.8 1416.86C1349.8 1415.69 1351.24 1415.4 1354.26 1415.4C1362.24 1415.4 1368.93 1415.84 1371.01 1415.84C1373.72 1415.84 1381.22 1415.4 1386 1415.4C1388.05 1415.4 1389.35 1415.69 1389.35 1416.71C1389.35 1417.74 1388.39 1418.02 1386.79 1418.02C1385.2 1418.02 1381.85 1418.02 1378.98 1419.77C1376.91 1421.08 1374.5 1423.54 1370.19 1432.82C1363.98 1446.43 1359.67 1454.25 1351.06 1472.07C1340.85 1493.21 1333.41 1509.01 1329.88 1516.23C1325.73 1524.63 1324.78 1526.96 1322.57 1526.96C1320.49 1526.96 1319.53 1524.95 1316.48 1518.12L1276.35 1429.63ZM1435.05 1457.43C1435.05 1435.43 1435.05 1431.34 1434.75 1426.73C1434.43 1421.8 1433.16 1419.48 1427.89 1418.46C1425.84 1418.14 1423.76 1417.99 1421.68 1418.02C1419.9 1418.02 1418.94 1417.74 1418.94 1416.71C1418.94 1415.69 1420.09 1415.4 1422.46 1415.4C1430.92 1415.4 1440.95 1415.84 1445.42 1415.84C1450.51 1415.84 1482.22 1415.84 1485.26 1415.69C1488.27 1415.4 1490.84 1415.11 1492.09 1414.82C1492.9 1414.68 1493.87 1414.24 1494.65 1414.24C1495.45 1414.24 1495.61 1414.82 1495.61 1415.56C1495.61 1416.57 1494.8 1418.31 1494.31 1424.99C1494.16 1426.43 1493.86 1432.82 1493.52 1434.53C1493.36 1435.26 1493.04 1436.13 1491.93 1436.13C1490.81 1436.13 1490.49 1435.42 1490.49 1434.11C1490.49 1433.09 1490.33 1430.62 1489.53 1428.89C1488.41 1426.3 1486.82 1424.55 1478.86 1423.68C1476.15 1423.41 1459.44 1423.11 1456.25 1423.11C1455.44 1423.11 1455.13 1423.54 1455.13 1424.55V1461.19C1455.13 1462.2 1455.29 1462.79 1456.25 1462.79C1459.75 1462.79 1478.06 1462.79 1481.73 1462.51C1485.56 1462.21 1487.94 1461.77 1489.38 1460.33C1490.5 1459.16 1491.13 1458.44 1491.94 1458.44C1492.57 1458.44 1493.05 1458.72 1493.05 1459.6C1493.05 1460.46 1492.26 1462.79 1491.78 1470.17C1491.46 1473.07 1491.12 1478.86 1491.12 1479.88C1491.12 1481.06 1491.12 1482.63 1489.71 1482.63C1488.59 1482.63 1488.27 1482.04 1488.27 1481.32C1488.11 1479.88 1488.11 1478 1487.63 1476.13C1486.83 1473.2 1484.6 1471.04 1478.7 1470.46C1475.69 1470.17 1459.9 1470.03 1456.08 1470.03C1455.29 1470.03 1455.14 1470.6 1455.14 1471.46V1482.91C1455.14 1487.84 1454.99 1501.17 1455.14 1505.36C1455.44 1515.36 1458.01 1517.53 1474.27 1517.53C1478.4 1517.53 1485.09 1517.53 1489.24 1515.79C1493.39 1514.05 1495.3 1511 1496.41 1505.06C1496.74 1503.47 1497.07 1502.88 1498.16 1502.88C1499.46 1502.88 1499.46 1504.05 1499.46 1505.49C1499.46 1508.84 1498.16 1518.69 1497.39 1521.59C1496.27 1525.34 1494.83 1525.34 1488.77 1525.34C1464.71 1525.34 1454.01 1524.47 1444.65 1524.47C1440.98 1524.47 1430.94 1524.92 1424.56 1524.92C1422.49 1524.92 1421.37 1524.47 1421.37 1523.48C1421.37 1522.75 1422.01 1522.3 1423.92 1522.3C1426.31 1522.3 1428.23 1522.01 1429.67 1521.72C1432.84 1521.15 1433.65 1517.97 1434.27 1513.77C1435.07 1507.67 1435.07 1496.23 1435.07 1482.9L1435.05 1457.43ZM1583.22 1424.83C1583.22 1423.67 1583.54 1423.09 1584.66 1422.81C1586.25 1422.36 1589.12 1422.23 1593.12 1422.23C1602.52 1422.23 1617.49 1428.15 1617.49 1448.75C1617.49 1460.62 1612.88 1467.28 1608.08 1470.47C1605.22 1472.37 1603.14 1472.94 1596.76 1472.94C1592.78 1472.94 1587.99 1472.48 1584.65 1471.47C1583.53 1471.06 1583.21 1470.47 1583.21 1468.88L1583.22 1424.83ZM1564.43 1482.92C1564.43 1496.26 1564.43 1507.7 1563.64 1513.79C1563 1517.99 1562.22 1521.17 1559.03 1521.74C1557.14 1522.13 1555.22 1522.32 1553.29 1522.33C1551.39 1522.33 1550.73 1522.78 1550.73 1523.51C1550.73 1524.49 1551.87 1524.95 1553.92 1524.95C1560.3 1524.95 1570.34 1524.49 1573.38 1524.49C1575.76 1524.49 1587.54 1524.95 1596.79 1524.95C1598.86 1524.95 1599.98 1524.49 1599.98 1523.51C1599.98 1522.78 1599.34 1522.33 1598.08 1522.33C1596.16 1522.33 1592.66 1522.04 1590.25 1521.74C1585.49 1521.17 1584.53 1517.99 1584.04 1513.79C1583.23 1507.7 1583.23 1496.26 1583.23 1482.78V1480.75C1583.23 1479.89 1583.71 1479.6 1584.53 1479.6L1598.38 1479.88C1599.5 1479.88 1600.46 1480.02 1601.25 1480.89C1603.32 1483.05 1610.68 1492.92 1617.06 1500.87C1625.98 1512.04 1632.02 1518.84 1638.9 1522.18C1643.02 1524.19 1647 1524.95 1655.92 1524.95H1671.06C1672.96 1524.95 1674.07 1524.65 1674.07 1523.51C1674.07 1522.78 1673.44 1522.33 1672.18 1522.33C1670.92 1522.33 1669.47 1522.18 1667.69 1521.91C1665.31 1521.46 1658.79 1520.45 1649.86 1512.05C1640.46 1503.07 1629.47 1490.16 1615.28 1473.95C1631.39 1462.07 1636.3 1452.21 1636.3 1441.49C1636.3 1431.8 1629.95 1424.4 1625.49 1421.64C1616.88 1416.29 1606.21 1415.42 1596.15 1415.42C1591.21 1415.42 1579.11 1415.86 1573.69 1415.86C1570.34 1415.86 1560.31 1415.42 1551.87 1415.42C1549.46 1415.42 1548.36 1415.7 1548.36 1416.73C1548.36 1417.75 1549.32 1418.04 1551.07 1418.04C1553.3 1418.04 1556.01 1418.19 1557.28 1418.48C1562.55 1419.49 1563.82 1421.81 1564.14 1426.74C1564.44 1431.36 1564.44 1435.44 1564.44 1457.44L1564.43 1482.92ZM1702.31 1523.2C1699.73 1522.18 1699.27 1521.44 1699.27 1518.28C1699.27 1510.3 1699.91 1501.6 1700.06 1499.28C1700.22 1497.1 1700.73 1495.53 1701.98 1495.53C1703.4 1495.53 1703.58 1496.83 1703.58 1497.97C1703.58 1499.86 1704.21 1502.9 1704.99 1505.36C1708.51 1516.09 1717.91 1520 1727.79 1520C1742.11 1520 1749.14 1511.16 1749.14 1503.48C1749.14 1496.37 1746.73 1489.58 1733.51 1480.3L1726.2 1475.09C1708.66 1462.64 1702.59 1452.5 1702.59 1440.77C1702.59 1424.83 1717.29 1413.39 1739.4 1413.39C1749.79 1413.39 1756.47 1414.83 1760.63 1415.86C1762.05 1416.13 1762.86 1416.58 1762.86 1417.6C1762.86 1419.49 1762.23 1423.68 1762.23 1434.97C1762.23 1438.17 1761.75 1439.33 1760.48 1439.33C1759.34 1439.33 1758.88 1438.46 1758.88 1436.73C1758.88 1435.43 1758.08 1430.93 1754.73 1427.15C1752.32 1424.42 1747.71 1420.06 1737.35 1420.06C1725.55 1420.06 1718.38 1426.3 1718.38 1434.97C1718.38 1441.65 1722.07 1446.71 1735.28 1455.83L1739.74 1458.87C1758.89 1472.35 1765.89 1482.04 1765.89 1495.83C1765.89 1504.21 1762.38 1514.22 1750.89 1521.02C1742.94 1525.65 1734.02 1526.96 1725.56 1526.96C1716.32 1526.96 1709.14 1525.96 1702.31 1523.2ZM1832.43 1457.43C1832.43 1435.43 1832.43 1431.34 1832.14 1426.73C1831.81 1421.8 1830.22 1419.33 1826.71 1418.61C1824.84 1418.19 1822.92 1418 1820.99 1418.02C1819.4 1418.02 1818.44 1417.74 1818.44 1416.58C1818.44 1415.71 1819.71 1415.42 1822.27 1415.42C1828.32 1415.42 1838.35 1415.86 1842.96 1415.86C1846.97 1415.86 1856.36 1415.42 1862.42 1415.42C1864.49 1415.42 1865.77 1415.7 1865.77 1416.58C1865.77 1417.74 1864.83 1418.02 1863.24 1418.02C1861.64 1418.02 1860.34 1418.18 1858.45 1418.46C1854.14 1419.19 1852.87 1421.64 1852.55 1426.73C1852.23 1431.34 1852.23 1435.43 1852.23 1457.43V1482.92C1852.23 1496.97 1852.23 1508.42 1852.89 1514.66C1853.37 1518.55 1854.46 1521.17 1859.24 1521.74C1861.47 1522.03 1864.99 1522.33 1867.37 1522.33C1869.12 1522.33 1869.93 1522.78 1869.93 1523.51C1869.93 1524.49 1868.63 1524.95 1866.92 1524.95C1856.39 1524.95 1846.35 1524.49 1842.04 1524.49C1838.37 1524.49 1828.34 1524.95 1821.95 1524.95C1819.88 1524.95 1818.79 1524.49 1818.79 1523.51C1818.79 1522.78 1819.42 1522.33 1821.32 1522.33C1823.73 1522.33 1825.62 1522.04 1827.06 1521.74C1830.23 1521.17 1831.19 1518.72 1831.67 1514.51C1832.46 1508.41 1832.46 1496.96 1832.46 1482.91V1457.43H1832.43ZM1954.36 1423.54L1930.6 1424.12C1921.35 1424.4 1917.53 1425.13 1915.15 1428.31C1913.97 1429.83 1913.05 1431.55 1912.44 1433.38C1912.12 1434.55 1911.65 1435.14 1910.69 1435.14C1909.58 1435.14 1909.25 1434.39 1909.25 1432.82C1909.25 1430.5 1912.29 1417.31 1912.6 1416.14C1913.08 1414.25 1913.56 1413.39 1914.52 1413.39C1915.79 1413.39 1917.39 1414.83 1921.35 1415.13C1925.98 1415.57 1932.04 1415.87 1937.31 1415.87H2000.4C2005.5 1415.87 2009.02 1415.43 2011.4 1415.13C2013.79 1414.7 2015.07 1414.4 2015.71 1414.4C2016.82 1414.4 2016.98 1415.27 2016.98 1417.44C2016.98 1420.49 2016.5 1430.5 2016.5 1434.26C2016.34 1435.69 2016.02 1436.57 2015.09 1436.57C2013.79 1436.57 2013.49 1435.84 2013.31 1433.68L2013.15 1432.07C2012.86 1428.31 2008.55 1424.25 1994.34 1423.95L1974.27 1423.54V1482.92C1974.27 1496.26 1974.27 1507.7 1975.07 1513.93C1975.53 1517.99 1976.49 1521.18 1981.29 1521.76C1983.52 1522.04 1987.01 1522.34 1989.39 1522.34C1991.17 1522.34 1991.95 1522.79 1991.95 1523.52C1991.95 1524.51 1990.68 1524.96 1988.91 1524.96C1978.4 1524.96 1968.37 1524.51 1963.91 1524.51C1960.24 1524.51 1950.2 1524.96 1943.84 1524.96C1941.77 1524.96 1940.65 1524.51 1940.65 1523.52C1940.65 1522.79 1941.26 1522.34 1943.21 1522.34C1945.57 1522.34 1947.49 1522.05 1948.93 1521.76C1952.12 1521.18 1953.05 1518.01 1953.53 1513.81C1954.34 1507.71 1954.34 1496.27 1954.34 1482.94V1423.54H1954.36ZM2093.61 1487.42C2093.61 1479.6 2092.01 1476.41 2089.94 1472.2C2088.82 1469.88 2067.47 1438.02 2061.89 1430.5C2057.91 1425.13 2053.92 1421.51 2050.9 1419.92C2048.82 1418.91 2046.11 1418.02 2044.2 1418.02C2042.93 1418.02 2041.79 1417.74 2041.79 1416.71C2041.79 1415.86 2042.93 1415.4 2044.83 1415.4C2047.69 1415.4 2059.65 1415.84 2064.92 1415.84C2068.26 1415.84 2074.8 1415.4 2081.96 1415.4C2083.55 1415.4 2084.35 1415.84 2084.35 1416.71C2084.35 1417.58 2083.23 1417.73 2080.83 1418.31C2080.21 1418.42 2079.65 1418.74 2079.25 1419.21C2078.84 1419.69 2078.61 1420.29 2078.6 1420.92C2078.6 1422.08 2079.4 1423.82 2080.52 1425.83C2082.75 1430.2 2105.04 1465.1 2107.6 1469.16C2109.2 1465.67 2129.29 1433.79 2131.52 1429.33C2133.14 1426.14 2133.75 1423.67 2133.75 1421.8C2133.75 1420.36 2133.14 1418.75 2130.4 1418.18C2128.99 1417.89 2127.53 1417.6 2127.53 1416.73C2127.53 1415.71 2128.33 1415.42 2130.25 1415.42C2135.48 1415.42 2140.61 1415.86 2145.24 1415.86C2148.74 1415.86 2159.25 1415.42 2162.25 1415.42C2164.01 1415.42 2165.15 1415.7 2165.15 1416.58C2165.15 1417.6 2163.85 1418.02 2162.11 1418.02C2160.52 1418.02 2157.51 1418.61 2155.1 1419.77C2151.75 1421.21 2150 1422.96 2146.51 1426.87C2141.24 1432.67 2118.92 1466.7 2116.06 1472.95C2113.67 1478.14 2113.67 1482.64 2113.67 1487.42V1499.29C2113.67 1501.61 2113.67 1507.7 2114.15 1513.79C2114.45 1517.99 2115.9 1521.17 2120.66 1521.74C2122.92 1522.03 2126.41 1522.33 2128.64 1522.33C2130.39 1522.33 2131.19 1522.78 2131.19 1523.51C2131.19 1524.49 2129.89 1524.95 2127.82 1524.95C2117.79 1524.95 2107.76 1524.49 2103.45 1524.49C2099.44 1524.49 2089.42 1524.95 2083.54 1524.95C2081.31 1524.95 2080.03 1524.65 2080.03 1523.51C2080.03 1522.78 2080.82 1522.33 2082.58 1522.33C2084.81 1522.33 2086.71 1522.04 2088.16 1521.74C2091.32 1521.17 2092.76 1517.99 2093.1 1513.79C2093.58 1507.7 2093.58 1501.61 2093.58 1499.29V1487.42H2093.61Z" fill="#2D67AF"/>
<path fill-rule="evenodd" clip-rule="evenodd" d="M346.941 951.67L276.658 951.501L362.622 997.284L346.941 951.67ZM361.221 1117.77L425.72 1125.53L456.964 1205.62L361.221 1117.77ZM363.205 997.466L361.221 1113.14L294.79 1139.46L363.205 997.466Z" fill="#A98C57"/>
<path fill-rule="evenodd" clip-rule="evenodd" d="M362.232 1292.39L456.367 1261.97L544.821 1289.73L459.091 1207.34L362.232 1292.39ZM571.279 951.501L641.64 951.319L555.586 997.064L571.279 951.501ZM555.378 1118.46L490.892 1126.2L459.674 1206.27L555.378 1118.46ZM553.407 998.179L555.378 1113.83L621.822 1140.11L553.407 998.179Z" fill="#2D67AF"/>
<path fill-rule="evenodd" clip-rule="evenodd" d="M702.507 770.261C639.539 835.538 596.285 806.888 574.003 801.622C562.317 796.408 547.622 793.321 531.709 793.321C493.227 793.321 461.996 811.362 461.996 833.619C461.996 841.673 466.133 849.13 473.163 855.395C480.348 848.067 491.502 842.153 504.809 838.664C526.102 834.75 548.009 835.78 568.841 841.673C571.266 842.425 573.886 843.229 576.688 844.007V844.046C579.982 845.188 582.991 845.94 585.572 846.485C586.752 846.731 587.751 847.016 588.983 847.237C660.239 864.629 703.052 825.227 703.052 825.227L702.507 770.261Z" fill="#A98C57"/>
</g>
<defs>
<clipPath id="clip0_11_30">
<rect width="2500" height="2500" rx="1250" fill="white"/>
</clipPath>
</defs>
</svg>
