<svg width="81" height="81" viewBox="0 0 81 81" fill="none" xmlns="http://www.w3.org/2000/svg">
<g clip-path="url(#clip0)">
<path d="M40.6575 77.4025C61.1496 77.4025 77.7618 60.7904 77.7618 40.2982C77.7618 19.806 61.1496 3.19385 40.6575 3.19385C20.1653 3.19385 3.5531 19.806 3.5531 40.2982C3.5531 60.7904 20.1653 77.4025 40.6575 77.4025Z" fill="#131E34"/>
<path d="M40.5048 0.522461C18.4082 0.522461 0.5 18.4306 0.5 40.5272C0.5 62.6238 18.4082 80.532 40.5048 80.532C62.6014 80.532 80.5095 62.6238 80.5095 40.5272C80.5 18.4306 62.5918 0.522461 40.5048 0.522461ZM58.7946 11.504C61.9049 13.4598 64.6813 15.9023 67.0188 18.7169L63.7272 23.4205C60.989 19.7377 57.3921 16.7228 53.2418 14.6906L58.7946 11.504ZM44.7027 63.5111C44.8745 63.5111 45.0271 63.5016 45.1893 63.473L46.5537 65.3811C45.9717 65.6006 45.3611 65.7151 44.7027 65.7151C42.9758 65.7151 41.4398 64.885 40.4666 63.6161C39.4934 64.8945 37.9669 65.7151 36.2305 65.7151C35.6389 65.7151 35.0856 65.6197 34.5608 65.4479L35.9538 63.492C36.0492 63.5016 36.1541 63.5111 36.24 63.5111C37.6711 63.5111 38.8733 62.5475 39.2454 61.2404L32.4237 58.5499L34.0552 54.4664L40.4857 57.052L46.9067 54.4569L48.5477 58.5499L41.6592 61.1832C42.0313 62.5284 43.2621 63.5111 44.7027 63.5111ZM26.7564 34.526L25.144 34.1062C26.8709 29.956 30.2197 26.6644 34.3891 25.0043C34.2841 25.6149 34.2174 26.2446 34.1696 26.8934C30.859 28.439 28.2162 31.1677 26.7564 34.526ZM32.4141 40.1551L29.7904 41.9107L24.9818 40.1551L24.1041 38.4092L25.8309 36.6155L31.5459 37.5314L32.4141 40.1551ZM39.6366 42.1015C39.6079 42.0728 39.5698 42.0538 39.5411 42.0347C39.3885 41.9297 39.2454 41.8248 39.1023 41.7198C38.4916 41.4336 37.9764 40.8135 37.6616 39.9929C37.5089 39.6686 37.4231 39.3346 37.3945 39.0198C37.3372 38.7336 37.3086 38.4282 37.299 38.1134C37.299 38.0752 37.3086 38.0371 37.3086 37.9989H37.299L38.8351 19.1462H40.5048L42.2984 37.8653C42.308 37.8749 42.3175 37.8844 42.3366 37.8844L59.2144 50.9745L58.2412 52.3293L39.6366 42.1015ZM56.2662 40.1551L51.4481 41.9107L48.8244 40.1551L49.7021 37.5314L55.4076 36.6155L57.144 38.4092L56.2662 40.1551ZM56.9436 42.8552C56.8101 43.7711 56.6002 44.668 56.3235 45.5266C55.8941 45.1355 55.4362 44.7538 54.9496 44.3626C55.0832 43.8665 55.1881 43.3704 55.274 42.8552H56.9436ZM54.2722 34.5833C52.6121 30.7002 49.3587 27.6566 45.3229 26.3018C45.2466 25.6626 45.1416 25.0615 45.0271 24.4795C49.9597 25.8725 53.9574 29.4885 55.8846 34.1635L54.2722 34.5833ZM58.2794 47.5493C59.138 45.3644 59.6246 42.9888 59.6246 40.4986C59.6246 31.1963 52.9842 23.4491 44.1875 21.7318C43.7964 20.7872 43.3193 19.9667 42.785 19.2988C53.4994 20.4437 61.8286 29.4885 61.8286 40.4986C61.8286 43.8093 61.0748 46.9291 59.7296 49.7151C59.4147 49.0567 58.9281 48.3126 58.2794 47.5493ZM40.5048 13.6507C44.6169 13.6507 48.5095 14.5857 51.9919 16.2267L50.3509 19.108C47.3551 17.7246 44.0158 16.9518 40.5048 16.9518C36.9842 16.9518 33.6354 17.7246 30.6395 19.1176L28.9985 16.2362C32.4809 14.5857 36.3831 13.6507 40.5048 13.6507ZM22.4916 11.2655L27.7296 14.6525C23.7701 16.5988 20.3163 19.4038 17.6258 22.848L13.9144 18.6882C16.3378 15.7687 19.2382 13.2595 22.4916 11.2655ZM26.9377 72.4414C17.206 68.2911 9.75462 59.7902 7.0641 49.3716L11.596 43.4754C12.5405 53.4265 18.5131 61.9083 26.9377 66.3543C26.8423 67.3942 26.7946 68.4437 26.7946 69.5123C26.7946 70.6095 26.8423 71.5827 26.9377 72.4414ZM27.2239 63.7687C19.1333 59.151 13.6854 50.4497 13.6854 40.47C13.6854 34.4306 15.689 28.8397 19.0665 24.3555L21.299 26.8934C18.5799 30.7288 16.9866 35.4133 16.9866 40.47C16.9866 48.8278 21.3372 56.1647 27.9204 60.3436C27.6246 61.4312 27.4052 62.5761 27.2239 63.7687ZM28.5596 58.1587C22.9019 54.3328 19.181 47.8451 19.181 40.4986C19.181 30.1182 26.5942 21.4742 36.4308 19.5755C35.9252 20.2816 35.4767 21.1498 35.1237 22.1516C27.1857 24.4795 21.3849 31.8069 21.3849 40.4986C21.3849 46.9101 24.5429 52.5869 29.3897 56.0502C29.0844 56.7276 28.8172 57.4336 28.5596 58.1587ZM24.0563 42.8552H25.7165C26.3462 46.7097 28.4261 50.0776 31.3933 52.3579C31.088 52.8063 30.7922 53.2738 30.5155 53.7604C27.0999 51.1844 24.7051 47.3108 24.0563 42.8552ZM47.2597 74.5308C45.0653 74.9697 42.7946 75.1987 40.4666 75.1987C38.2817 75.1987 36.1541 74.9888 34.0742 74.6071C32.7958 72.8802 31.794 70.6763 31.1547 68.1671C34.0742 69.1593 37.2036 69.6936 40.4571 69.6936C43.8536 69.6936 47.107 69.1116 50.141 68.043C49.5113 70.5809 48.5191 72.7944 47.2597 74.5308ZM49.7021 52.272C50.1792 51.9095 50.6276 51.4992 51.0569 51.0794C51.6008 51.337 52.1351 51.5851 52.6503 51.795C52.011 52.4819 51.3241 53.1021 50.5894 53.6745C50.3128 53.1879 50.0075 52.7204 49.7021 52.272ZM51.763 55.9548C53.051 55.0102 54.234 53.9035 55.2454 52.6632C56.1899 52.9017 57.0391 53.0257 57.7546 53.0162C56.3235 54.9721 54.5775 56.6894 52.5835 58.0633C52.3354 57.3382 52.0587 56.6322 51.763 55.9548ZM53.2227 60.2482C59.72 56.0597 64.0134 48.7705 64.0134 40.47C64.0134 35.4038 62.4201 30.7192 59.6914 26.8743L61.924 24.3364C65.3014 28.8302 67.3241 34.4115 67.305 40.47C67.305 50.3829 61.924 59.046 53.9287 63.6829C53.7475 62.4998 53.5185 61.3454 53.2227 60.2482ZM54.1386 72.365C54.234 71.5254 54.2817 70.5809 54.2817 69.5028C54.2722 68.4151 54.2245 67.337 54.1291 66.2684C62.4201 61.8224 68.3068 53.4551 69.2895 43.6375L73.9359 48.9709C71.3503 59.4944 63.9085 68.1289 54.1386 72.365Z" fill="white"/>
<path d="M27.1476 63.7593C27.1572 63.7593 27.1668 63.7689 27.1668 63.7689C27.1572 63.7689 27.1572 63.7689 27.1476 63.7593Z" fill="#FDB515"/>
<path d="M53.9383 63.7209C53.757 62.5379 53.5281 61.3834 53.2323 60.2767C59.7296 56.0882 64.0325 48.7895 64.0325 40.4794C64.0325 35.4132 62.4297 30.7191 59.701 26.8742L61.9335 24.3363C59.3384 20.8921 55.9323 18.087 52.0015 16.217L50.3605 19.0984C47.3551 17.715 44.0254 16.9421 40.5048 16.9421C36.9842 16.9421 33.6354 17.715 30.63 19.1079L28.989 16.2361C25.0582 18.1157 21.6521 20.9111 19.0665 24.3649L21.2895 26.8932C18.5704 30.7382 16.9675 35.4228 16.9675 40.4794C16.9675 48.8467 21.3277 56.1837 27.9109 60.3625C27.6247 61.4597 27.3957 62.6046 27.2144 63.7972C31.1357 66.0393 35.6676 67.3274 40.5048 67.3274C45.3611 67.3274 49.9216 66.0298 53.8524 63.7686L53.9383 63.7209ZM61.8477 40.5176C61.8477 43.8283 61.0939 46.9481 59.7487 49.7436C59.4338 49.0757 58.9473 48.3411 58.2985 47.5778C59.1572 45.393 59.6437 43.0173 59.6437 40.5176C59.6437 31.2057 52.9938 23.4585 44.1971 21.7317C43.8059 20.7871 43.3289 19.9666 42.7946 19.2987C53.509 20.4436 61.8477 29.4979 61.8477 40.5176ZM56.2758 40.1646L51.4481 41.9296L48.8244 40.1741L49.7022 37.5504L55.4171 36.6345L57.1536 38.4281L56.2758 40.1646ZM56.9532 42.8742C56.8196 43.7901 56.6097 44.6869 56.3331 45.5456C55.9037 45.1544 55.4458 44.7728 54.9592 44.3816C55.0928 43.8855 55.1977 43.3894 55.2836 42.8742H56.9532ZM45.3229 26.3017C45.2466 25.6625 45.1416 25.0614 45.0272 24.4794C49.9598 25.8724 53.9669 29.4884 55.8942 34.1729L54.2818 34.5927C52.6217 30.7096 49.3682 27.6661 45.3229 26.3017ZM37.2895 38.0179L38.8256 19.1461H40.4953L42.2889 37.8843C42.2985 37.8938 42.308 37.9034 42.3271 37.9034L59.2239 51.003L58.2508 52.3578L39.627 42.1204V42.1109C39.5984 42.0918 39.5603 42.0727 39.5316 42.0537C39.379 41.9487 39.2359 41.8438 39.0928 41.7388C38.4821 41.4526 37.9669 40.8324 37.6521 40.0119C37.4994 39.6875 37.4136 39.3536 37.3849 39.0387C37.3277 38.7525 37.2991 38.4472 37.2895 38.1324C37.2895 38.0942 37.2991 38.056 37.2895 38.0179ZM28.5501 58.1968C22.8829 54.3613 19.1619 47.8736 19.1619 40.5176C19.1619 30.1276 26.5847 21.474 36.4213 19.5754C35.9156 20.2814 35.4672 21.1592 35.1142 22.1514C27.1667 24.4794 21.3659 31.8163 21.3659 40.5176C21.3659 46.929 24.5239 52.6154 29.3802 56.0882C29.0749 56.7656 28.8077 57.4621 28.5501 58.1968ZM34.3891 25.0137C34.2842 25.6243 34.2174 26.254 34.1697 26.9028C30.8495 28.4484 28.2066 31.1771 26.7469 34.545L25.125 34.1252C26.8614 29.9654 30.2102 26.6643 34.3891 25.0137ZM30.5155 53.7889C27.0808 51.2129 24.6956 47.3297 24.0468 42.8742H25.7069C26.3366 46.7382 28.4165 50.0966 31.3933 52.3864C31.088 52.8348 30.7922 53.3023 30.5155 53.7889ZM29.7809 41.9296L24.9628 40.1741L24.085 38.4281L25.8119 36.6345L31.5364 37.5504L32.4046 40.1741L29.7809 41.9296ZM44.7123 63.5492C44.884 63.5492 45.0367 63.5396 45.1989 63.511L46.5632 65.4192C45.9812 65.6386 45.3706 65.7531 44.7123 65.7531C42.9854 65.7531 41.4493 64.9231 40.4762 63.6541C39.503 64.9326 37.9669 65.7531 36.24 65.7531C35.6485 65.7531 35.0856 65.6577 34.5704 65.486L35.9634 63.5301C36.0588 63.5396 36.1637 63.5492 36.2496 63.5492C37.6807 63.5492 38.8829 62.5856 39.2645 61.2785L32.4428 58.5879L34.0838 54.5045L40.5143 57.09L46.9353 54.4949L48.5764 58.5879L41.6879 61.2212C42.0313 62.5569 43.2621 63.5492 44.7123 63.5492ZM49.7117 52.3005C50.1888 51.938 50.6372 51.5277 51.0665 51.1079C51.6103 51.3655 52.1446 51.6136 52.6694 51.8235C52.0301 52.5104 51.3432 53.1306 50.599 53.703C50.3223 53.2164 50.017 52.7489 49.7117 52.3005ZM51.763 55.9833C53.051 55.0387 54.2341 53.9225 55.2549 52.6917C56.1995 52.9302 57.0486 53.0543 57.7737 53.0447C56.3426 55.0006 54.5966 56.7179 52.593 58.0918C52.345 57.3667 52.0683 56.6607 51.763 55.9833Z" fill="#FDB515"/>
<path d="M34.0934 33.2762C33.3492 31.4539 32.128 30.0132 30.735 29.1164C29.0368 30.5857 27.6629 32.427 26.7565 34.526L25.1441 34.1062C26.06 31.9118 27.4244 29.956 29.1226 28.3531C27.9682 27.9905 26.766 27.9905 25.6593 28.439C24.1805 30.2517 23.0356 32.3412 22.2914 34.6119C22.3295 35.6614 22.5681 36.749 23.0069 37.8272C24.6193 41.7484 28.4071 43.9142 31.4601 42.6548C34.5323 41.3954 35.7058 37.1975 34.0934 33.2762ZM24.9724 40.1551L24.0946 38.4092L25.8215 36.6155L31.5365 37.5314L32.4047 40.1551L29.7905 41.9106L24.9724 40.1551Z" fill="white"/>
<path d="M51.9442 28.4295C53.6329 30.0323 54.9782 31.9787 55.875 34.1635L54.2721 34.5833C53.3848 32.5129 52.0491 30.6811 50.389 29.2213C49.0533 30.1182 47.8989 31.5207 47.1738 33.2857C45.5614 37.207 46.7349 41.405 49.7975 42.6644C52.8601 43.9238 56.6383 41.758 58.2507 37.8367C58.5941 36.9971 58.8136 36.1385 58.909 35.2989C58.1744 32.7133 56.915 30.3376 55.2453 28.3245C54.1767 27.981 53.0414 28.0383 51.9442 28.4295ZM56.2662 40.1552L51.4481 41.9107L48.8243 40.1552L49.7021 37.5314L55.4075 36.6155L57.1439 38.4092L56.2662 40.1552Z" fill="white"/>
<path d="M46.0194 59.5232L41.6784 61.1833C42.0314 62.519 43.2526 63.5113 44.7028 63.5113C44.8745 63.5113 45.0272 63.5017 45.1894 63.4731L46.5537 65.3813C45.9717 65.6007 45.3611 65.7152 44.7028 65.7152C42.9759 65.7152 41.4398 64.8851 40.4667 63.6162C39.4935 64.8947 37.967 65.7152 36.2305 65.7152C35.639 65.7152 35.0856 65.6198 34.5609 65.448L35.9538 63.4922C36.0493 63.5017 36.1542 63.5113 36.2401 63.5113C37.6712 63.5113 38.8733 62.5476 39.2454 61.2405L35.0475 59.5804C33.7022 61.0783 32.8626 63.1296 32.8626 65.3813C32.8626 66.6311 33.1202 67.8046 33.5686 68.8732C35.7726 69.4075 38.0624 69.6937 40.438 69.6937C42.8996 69.6937 45.2753 69.3884 47.5555 68.816C47.9944 67.7665 48.2425 66.612 48.2425 65.3908C48.252 63.101 47.4029 61.0306 46.0194 59.5232Z" fill="white"/>
</g>
<defs>
<clipPath id="clip0">
<rect width="80" height="80" fill="white" transform="translate(0.5 0.522461)"/>
</clipPath>
</defs>
</svg>
