<svg width="251" height="28" viewBox="0 0 251 28" fill="none" xmlns="http://www.w3.org/2000/svg">
<rect width="251" height="28" rx="14" fill="#B2ACA5"/>
<path d="M40.216 9.36H41.332L44.08 16.812L46.828 9.36H47.944L44.656 18H43.504L40.216 9.36ZM48.9723 9.36H50.3403L53.2923 16.788L56.2443 9.36H57.6123V18H56.5803V11.22L53.7843 18H52.8003L50.0043 11.22V18H48.9723V9.36ZM58.6496 9.36H59.7536L61.7456 16.44L63.7376 9.36H64.9136L66.9056 16.44L68.8976 9.36H70.0016L67.4936 18H66.3176L64.3256 10.788L62.3336 18H61.1576L58.6496 9.36ZM73.9667 9.36H75.1187L78.6467 18H77.5187L76.5467 15.528H72.5387L71.5667 18H70.4387L73.9667 9.36ZM76.1627 14.568L74.5427 10.452L72.9227 14.568H76.1627ZM79.6754 9.36H83.2514C84.2434 9.36 84.9874 9.58 85.4834 10.02C85.9794 10.452 86.2274 11.056 86.2274 11.832C86.2274 12.248 86.1114 12.636 85.8794 12.996C85.6554 13.356 85.3194 13.648 84.8714 13.872C85.1754 13.976 85.4154 14.148 85.5914 14.388C85.7674 14.628 85.8834 14.928 85.9394 15.288L86.3474 18H85.2554L84.9434 15.732C84.8954 15.388 84.8034 15.112 84.6674 14.904C84.5394 14.696 84.3634 14.544 84.1394 14.448C83.9154 14.352 83.6354 14.304 83.2994 14.304H80.7314V18H79.6754V9.36ZM83.2514 13.344C83.8914 13.344 84.3634 13.212 84.6674 12.948C84.9794 12.676 85.1354 12.304 85.1354 11.832C85.1354 11.36 84.9794 10.992 84.6674 10.728C84.3634 10.456 83.8914 10.32 83.2514 10.32H80.7314V13.344H83.2514ZM87.5035 9.36H93.5275V10.32H88.5595V13.008H93.1675V13.968H88.5595V17.04H93.4795V18H87.5035V9.36ZM99.3474 10.32H96.4314V9.36H103.355V10.32H100.439V18H99.3474V10.32ZM107.342 9.36H108.494L112.022 18H110.894L109.922 15.528H105.914L104.942 18H103.814L107.342 9.36ZM109.538 14.568L107.918 10.452L106.298 14.568H109.538ZM113.05 9.36H114.322L118.978 16.548V9.36H120.034V18H118.762L114.106 10.812V18H113.05V9.36ZM121.184 17.064L126.488 10.296L124.568 10.32H121.4V9.36H127.784V10.296L122.48 17.064L124.4 17.04H127.856V18H121.184V17.064ZM132.275 18.144C131.555 18.144 130.943 18.016 130.439 17.76C129.935 17.496 129.551 17.112 129.287 16.608C129.023 16.104 128.891 15.492 128.891 14.772V9.36H129.947V14.772C129.947 15.596 130.143 16.204 130.535 16.596C130.935 16.988 131.515 17.184 132.275 17.184C133.035 17.184 133.611 16.988 134.003 16.596C134.403 16.204 134.603 15.596 134.603 14.772V9.36H135.659V14.772C135.659 15.492 135.527 16.104 135.263 16.608C134.999 17.112 134.615 17.496 134.111 17.76C133.607 18.016 132.995 18.144 132.275 18.144ZM142.428 9.36H143.58L147.108 18H145.98L145.008 15.528H141L140.028 18H138.9L142.428 9.36ZM144.624 14.568L143.004 10.452L141.384 14.568H144.624ZM147.536 9.36H148.64L150.632 16.44L152.624 9.36H153.8L155.792 16.44L157.784 9.36H158.888L156.38 18H155.204L153.212 10.788L151.22 18H150.044L147.536 9.36ZM162.853 9.36H164.005L167.533 18H166.405L165.433 15.528H161.425L160.453 18H159.325L162.853 9.36ZM165.049 14.568L163.429 10.452L161.809 14.568H165.049ZM168.562 9.36H172.138C173.13 9.36 173.874 9.58 174.37 10.02C174.866 10.452 175.114 11.056 175.114 11.832C175.114 12.248 174.998 12.636 174.766 12.996C174.542 13.356 174.206 13.648 173.758 13.872C174.062 13.976 174.302 14.148 174.478 14.388C174.654 14.628 174.77 14.928 174.826 15.288L175.234 18H174.142L173.83 15.732C173.782 15.388 173.69 15.112 173.554 14.904C173.426 14.696 173.25 14.544 173.026 14.448C172.802 14.352 172.522 14.304 172.186 14.304H169.618V18H168.562V9.36ZM172.138 13.344C172.778 13.344 173.25 13.212 173.554 12.948C173.866 12.676 174.022 12.304 174.022 11.832C174.022 11.36 173.866 10.992 173.554 10.728C173.25 10.456 172.778 10.32 172.138 10.32H169.618V13.344H172.138ZM176.39 9.36H179.234C180.154 9.36 180.93 9.552 181.562 9.936C182.202 10.312 182.678 10.824 182.99 11.472C183.31 12.12 183.47 12.856 183.47 13.68C183.47 14.504 183.31 15.24 182.99 15.888C182.678 16.536 182.202 17.052 181.562 17.436C180.93 17.812 180.154 18 179.234 18H176.39V9.36ZM179.234 17.04C179.938 17.04 180.522 16.896 180.986 16.608C181.458 16.32 181.806 15.924 182.03 15.42C182.254 14.916 182.366 14.336 182.366 13.68C182.366 13.024 182.254 12.444 182.03 11.94C181.806 11.436 181.458 11.04 180.986 10.752C180.522 10.464 179.938 10.32 179.234 10.32H177.446V17.04H179.234ZM187.078 9.36H192.862V10.32H188.134V13.008H192.622V13.968H188.134V18H187.078V9.36ZM193.945 9.36H195.001V18H193.945V9.36ZM196.629 9.36H197.901L202.557 16.548V9.36H203.613V18H202.341L197.685 10.812V18H196.629V9.36ZM208.17 9.36H209.322L212.85 18H211.722L210.75 15.528H206.742L205.77 18H204.642L208.17 9.36ZM210.366 14.568L208.746 10.452L207.126 14.568H210.366ZM213.879 9.36H214.935V17.04H219.279V18H213.879V9.36ZM220.359 9.36H221.415V18H220.359V9.36ZM226.187 18.144C225.515 18.144 224.915 18.036 224.387 17.82C223.859 17.604 223.435 17.272 223.115 16.824C222.803 16.368 222.635 15.792 222.611 15.096H223.703C223.727 15.832 223.967 16.364 224.423 16.692C224.887 17.02 225.475 17.184 226.187 17.184C226.827 17.184 227.339 17.052 227.723 16.788C228.115 16.516 228.311 16.128 228.311 15.624C228.311 15.344 228.243 15.116 228.107 14.94C227.979 14.756 227.739 14.592 227.387 14.448C227.043 14.304 226.539 14.16 225.875 14.016C225.187 13.872 224.631 13.704 224.207 13.512C223.783 13.312 223.459 13.048 223.235 12.72C223.019 12.392 222.911 11.972 222.911 11.46C222.911 11.012 223.039 10.62 223.295 10.284C223.551 9.94 223.899 9.676 224.339 9.492C224.787 9.308 225.287 9.216 225.839 9.216C226.975 9.216 227.819 9.48 228.371 10.008C228.931 10.536 229.219 11.216 229.235 12.048H228.155C228.115 11.424 227.911 10.956 227.543 10.644C227.175 10.332 226.607 10.176 225.839 10.176C225.287 10.176 224.843 10.292 224.507 10.524C224.171 10.756 224.003 11.068 224.003 11.46C224.003 11.756 224.055 11.996 224.159 12.18C224.271 12.356 224.487 12.516 224.807 12.66C225.135 12.804 225.631 12.944 226.295 13.08C227.119 13.248 227.755 13.452 228.203 13.692C228.651 13.924 228.963 14.196 229.139 14.508C229.315 14.812 229.403 15.184 229.403 15.624C229.403 16.128 229.267 16.572 228.995 16.956C228.731 17.332 228.355 17.624 227.867 17.832C227.387 18.04 226.827 18.144 226.187 18.144ZM232.894 10.32H229.978V9.36H236.902V10.32H233.986V18H232.894V10.32Z" fill="white"/>
<path d="M33.0523 14.093L33.2446 12.388C33.346 11.478 33.4139 10.878 33.3606 10.5H33.3794C33.7371 10.4999 34.084 10.3827 34.3625 10.168C34.641 9.95319 34.8344 9.65372 34.9105 9.31928C34.9867 8.98483 34.941 8.63553 34.7811 8.32935C34.6211 8.02317 34.3566 7.77855 34.0314 7.63608C33.7061 7.49361 33.3398 7.46188 32.9931 7.54614C32.6464 7.63041 32.3403 7.8256 32.1255 8.09933C31.9108 8.37305 31.8003 8.70882 31.8124 9.05092C31.8246 9.39301 31.9586 9.72084 32.1923 9.97998C31.8516 10.181 31.4065 10.606 30.7367 11.245C30.2194 11.738 29.9613 11.984 29.6729 12.022C29.5131 12.0431 29.3503 12.0213 29.2026 11.959C28.9372 11.847 28.7596 11.543 28.4053 10.934L26.5348 7.72498C26.3164 7.34998 26.1335 7.03498 25.9684 6.78298C26.3867 6.57903 26.7211 6.24625 26.9176 5.83828C27.1141 5.43031 27.1614 4.9709 27.0518 4.53408C26.9422 4.09725 26.6821 3.70846 26.3135 3.43034C25.9448 3.15222 25.489 3.00098 25.0196 3.00098C24.5502 3.00098 24.0944 3.15222 23.7257 3.43034C23.3571 3.70846 23.097 4.09725 22.9874 4.53408C22.8778 4.9709 22.9251 5.43031 23.1216 5.83828C23.3182 6.24625 23.6525 6.57903 24.0708 6.78298C23.9057 7.03598 23.7228 7.34998 23.5034 7.72498L21.6339 10.934C21.2786 11.543 21.101 11.847 20.8355 11.959C20.6879 12.0213 20.5251 12.0431 20.3653 12.022C20.0779 11.984 19.8198 11.738 19.3026 11.245C18.6327 10.606 18.1876 10.181 17.8469 9.97998C18.0806 9.72084 18.2146 9.39301 18.2268 9.05092C18.2389 8.70882 18.1285 8.37305 17.9137 8.09933C17.6989 7.8256 17.3928 7.63041 17.0461 7.54614C16.6994 7.46188 16.3331 7.49361 16.0078 7.63608C15.6826 7.77855 15.4181 8.02317 15.2582 8.32935C15.0982 8.63553 15.0526 8.98483 15.1287 9.31928C15.2048 9.65372 15.3982 9.95319 15.6767 10.168C15.9552 10.3827 16.3021 10.4999 16.6598 10.5H16.6786C16.6253 10.878 16.6933 11.479 16.7946 12.388L16.9869 14.093C17.0935 15.039 17.1813 15.94 17.2899 16.75H32.7493C32.8579 15.94 32.9457 15.04 33.0523 14.093ZM23.8827 21H26.1565C29.1201 21 30.6019 21 31.5904 20.153C32.022 19.783 32.2947 19.117 32.4922 18.25H17.547C17.7445 19.117 18.0172 19.784 18.4488 20.153C19.4374 21 20.9191 21 23.8827 21Z" fill="white"/>
</svg>
